<svg xmlns="http://www.w3.org/2000/svg" viewBox="0 0 74.95 113.56"><defs><style>.cls-1{fill:#ccc;}.cls-2{opacity:0.5;}.cls-3{fill:#1f1f1f;opacity:0.3;}.cls-4{fill:#1b2a42;}.cls-5,.cls-6{fill:#17253a;}.cls-5{opacity:0.7;}.cls-7{fill:#263851;}</style></defs><title>Bomb</title><g id="Layer_2" data-name="Layer 2"><g id="Layer_1-2" data-name="Layer 1"><path class="cls-1" d="M15.93,22.83c-6.87,1.1-13.26-2.91-9.45-12.45A19.4,19.4,0,0,1,8.21,7.63l0,0L9,7.24c.39-.14.67-.26.7-.43s-.18-.28-.54-.36c.46-.55.89-1,1.22-1.48.56-.72.84-1.22.72-1.33s-.61.16-1.33.73A17,17,0,0,0,7.48,6.63,5.24,5.24,0,0,0,7,6.86,2.29,2.29,0,0,0,6.77,7c-.2,0-.4-.06-.6-.08.27-.23.54-.48.82-.75A7.08,7.08,0,0,0,8.73,3.83c.29-.75.17-1.28,0-1.28s-.36.36-.77.87a19.46,19.46,0,0,1-1.62,1.7,5.77,5.77,0,0,0,1.08-1.7,3.13,3.13,0,0,0,.06-2C7.38,1.12,7.27.89,7.17.7A2.89,2.89,0,0,0,6.81.27C6.6.05,6.45,0,6.39,0s-.06.23,0,.5.1.28.14.46.07.39.12.6A2.67,2.67,0,0,1,6.41,3,6.2,6.2,0,0,1,5.66,4.1a3.53,3.53,0,0,0-.24-.61c-.32-.59-.63-.88-.77-.81s0,1.15,0,2.45c-.3.32-.59.64-.85,1A4.44,4.44,0,0,0,3.8,4C3.54,3.25,3.09,3,3,3.05s0,.51,0,1.13a8.46,8.46,0,0,1-.48,2.45c-.3,1-.61,1.9-.77,2.6a3.93,3.93,0,0,0-.11.73c-6,13.43,6.57,19.33,13.85,18.21,10.15-1.56,16.68,1.9,12.72,12.3,0,0,2.25,1.74,5.25-2C37.44,23.59,26,21.22,15.93,22.83Z"/><g class="cls-2"><path class="cls-3" d="M6.48,10.38A19.4,19.4,0,0,1,8.21,7.63l0,0L9,7.24c.39-.14.67-.26.7-.43s-.18-.28-.54-.36c.46-.55.89-1,1.22-1.48.56-.72.84-1.22.72-1.33s-.61.16-1.33.73A17,17,0,0,0,7.48,6.63,5.24,5.24,0,0,0,7,6.86,2.29,2.29,0,0,0,6.77,7a3.29,3.29,0,0,0-.44,0C2.7,12.31,1.44,20.89,7.65,22.85c4,1.27,8.78.52,12.65-.44h0c-.71,0-1.43.07-2.14.14h-.07c-.72.07-1.44.16-2.15.28C9.06,23.93,2.67,19.92,6.48,10.38Z"/><path class="cls-3" d="M28.16,40.47s2.25,1.74,5.25-2a19.35,19.35,0,0,0,.75-6.87c-.23,1.88-.85,3.24-1.95,3-2.56-.67-1.66-8.67-12.57-8.08-5.09.28-9.35.65-12.74.29a15.4,15.4,0,0,0,8.54,1.41C25.59,26.61,32.12,30.07,28.16,40.47Z"/></g><path class="cls-4" d="M26,54c0-5-1.12-10.08-1.22-11.81s7.58-7,10.63-4.45c.36,4.92,3.14,11.61,4.15,12.76C37.2,54.08,26,54,26,54Z"/><path class="cls-5" d="M29.47,53.87a2.43,2.43,0,0,0-.08-.52c-.68-2.84-2-9.32-2.58-13.64-1.25.94-2.09,1.92-2.06,2.5C24.85,43.94,26,49,26,54,26,54,27.46,54,29.47,53.87Z"/><path class="cls-5" d="M39.53,50.52c-1-1.15-3.79-7.84-4.15-12.76a4.1,4.1,0,0,0-3.57-.49c.15,5,.89,12.08,3.55,15.64C37.21,52.39,38.8,51.63,39.53,50.52Z"/><path class="cls-4" d="M74.23,73.87C78.11,91,65.9,108.29,47,112.59S9.52,106.52,5.64,89.43,14,55,32.92,50.71,70.35,56.78,74.23,73.87Z"/><path class="cls-6" d="M32.92,50.71A38.14,38.14,0,0,0,25,53.44c13.31-3.82,28.93,2.1,31,17.93,2.82,21.75-36.57,34.47-49.31,21.48,5.42,15,22.67,23.75,40.31,19.74C65.9,108.29,78.11,91,74.23,73.87S51.86,46.41,32.92,50.71Z"/><path class="cls-7" d="M30.31,58.51c2,2.48.5,7-3.38,10.19s-8.66,3.69-10.67,1.21-.5-7,3.38-10.19S28.3,56,30.31,58.51Z"/><path class="cls-7" d="M15.74,72.51c1.58.78,1.88,3.42.65,5.9s-3.5,3.86-5.08,3.08-1.88-3.43-.66-5.91S14.15,71.72,15.74,72.51Z"/></g></g></svg>