<svg xmlns="http://www.w3.org/2000/svg" xmlns:xlink="http://www.w3.org/1999/xlink" viewBox="0 0 210.44 118.64"><defs><style>.cls-1{isolation:isolate;}.cls-2{fill:#566468;}.cls-3{fill:#172135;}.cls-4{opacity:0.25;mix-blend-mode:multiply;}.cls-5{fill:url(#linear-gradient);}.cls-6{fill:url(#linear-gradient-2);}.cls-7{fill:url(#linear-gradient-3);}.cls-8{fill:#a04d37;}.cls-9{fill:url(#linear-gradient-4);}.cls-10{opacity:0.2;}.cls-11{fill:#283753;}.cls-12{fill:url(#linear-gradient-5);}.cls-13{fill:#3e4751;}.cls-14{fill:#934624;}.cls-15{fill:#8e4125;}.cls-16{fill:#82391c;}.cls-17{fill:#6f7f89;}.cls-18{fill:#5c6e77;}.cls-19{fill:#e0faff;}.cls-20{fill:#516672;}.cls-21{fill:#78878e;}.cls-22{fill:#101928;}.cls-23{fill:#381e02;opacity:0.19;}.cls-24{fill:#4c5f6c;}.cls-25{fill:#99adbc;}.cls-26{fill:#444e56;}</style><linearGradient id="linear-gradient" x1="938.22" y1="1303.46" x2="944.45" y2="1303.46" gradientTransform="matrix(0.42, -0.91, -0.91, -0.42, 858.37, 1407.42)" gradientUnits="userSpaceOnUse"><stop offset="0" stop-color="#ffa400"/><stop offset="1" stop-color="gold"/></linearGradient><linearGradient id="linear-gradient-2" x1="75.42" y1="50.51" x2="81.88" y2="13.85" gradientUnits="userSpaceOnUse"><stop offset="0" stop-color="#af5e31"/><stop offset="0.5" stop-color="#d37f54"/><stop offset="0.73" stop-color="#c16e42"/><stop offset="1" stop-color="#af5e31"/></linearGradient><linearGradient id="linear-gradient-3" x1="5.26" y1="19.67" x2="110.82" y2="19.67" gradientTransform="translate(20 -5.07) rotate(3.12)" gradientUnits="userSpaceOnUse"><stop offset="0" stop-color="#9b4b23"/><stop offset="0.5" stop-color="#af5b3e"/><stop offset="0.65" stop-color="#a85635"/><stop offset="1" stop-color="#9b4b23"/></linearGradient><linearGradient id="linear-gradient-4" x1="989.43" y1="1058.56" x2="995.65" y2="1058.56" gradientTransform="matrix(0.28, -0.96, -0.96, -0.28, 918.46, 1276.17)" xlink:href="#linear-gradient"/><linearGradient id="linear-gradient-5" x1="90.34" y1="58.87" x2="99.03" y2="9.6" gradientUnits="userSpaceOnUse"><stop offset="0" stop-color="#9eacb3"/><stop offset="0.11" stop-color="#a2b0b7"/><stop offset="0.23" stop-color="#acbdc4"/><stop offset="0.35" stop-color="#bed2d8"/><stop offset="0.47" stop-color="#d7eff5"/><stop offset="0.5" stop-color="#e0faff"/><stop offset="0.63" stop-color="#c7dce2"/><stop offset="0.77" stop-color="#b1c2c8"/><stop offset="0.9" stop-color="#a3b2b9"/><stop offset="1" stop-color="#9eacb3"/></linearGradient></defs><title>Chest Top</title><g class="cls-1"><g id="Layer_2" data-name="Layer 2"><g id="Layer_1-2" data-name="Layer 1"><path class="cls-2" d="M186.26,109.32s-3.9,8.43-7.51,9.25S61.65,97.49,59.29,96C53.62,92.56-4.54,44.17.28,41.35s121.29,19.36,125.3,21S186.26,109.32,186.26,109.32Z"/><path class="cls-3" d="M147.84,103.93c-.59.75-81.14-13-85.26-14.15S24,59,19.33,53.75a.35.35,0,0,1,.33-.57c18.56,3.52,75.12,15.34,91.82,19a7.6,7.6,0,0,1,3.22,1.58C122.51,80.31,148.43,103.18,147.84,103.93Z"/><g class="cls-4"><path class="cls-5" d="M60,4.93a3.82,3.82,0,0,0,.33,5.52,9.73,9.73,0,0,0,2.33,1.48c3.31,1.46,5.58,1.24,6.86.34-1.16,1.17-3.57,1.64-7.27,0a9.18,9.18,0,0,1-4-3.46,1.68,1.68,0,0,1,0-1.68,8.61,8.61,0,0,1,2.1-2.57C60.27,4.69,60.14,4.81,60,4.93Z"/></g><polygon class="cls-6" points="50.9 8.39 141.1 24.74 113.59 55.14 16.13 40.06 27.33 14.81 50.9 8.39"/><path class="cls-7" d="M129.5,22.31l-.82,1.81q-10.05-1.43-20-3.66C103.08,20,97.45,19.61,91.81,19s-11.29-1.29-16.92-2c-11.27-1.39-22.5-2.93-33.81-3.48-5.42-.28-10.83-.35-16.25-.14l-.5-1.07c5.6-.3,11.21-.3,16.81-.08,11.38.43,22.69,1.74,34,3.12C80.73,16,86.35,16.71,92,17.28s11.29,1,17,1.38h.12Q119.2,20.93,129.5,22.31Z"/><polygon class="cls-8" points="124.49 33.31 121.69 39.44 28.77 21.88 25.38 14.58 124.49 33.31"/><g class="cls-4"><path class="cls-9" d="M171.38,25.29a3.84,3.84,0,0,0,1.15,5.41,9.46,9.46,0,0,0,2.53,1.12c3.49,1,5.71.41,6.83-.66-1,1.33-3.28,2.14-7.18,1.07a9.2,9.2,0,0,1-4.5-2.83,1.7,1.7,0,0,1-.21-1.67,8.57,8.57,0,0,1,1.7-2.85C171.59,25,171.48,25.15,171.38,25.29Z"/></g><g class="cls-10"><path class="cls-11" d="M27.33,14.81,50.9,8.39l13,2.35A34.57,34.57,0,0,0,51.4,14.22c-11.33,5.66-21.88,17-.4,22.69-1.52,1.55-30.09-1.36-32-.37-1.38.7-3,1-2.29,1.87Z"/></g><path class="cls-12" d="M127.7,65.45C84.52,57.94,15.74,44.88.28,41.35-.78,39.51,13.24,14,21.75,6.6,35.58-3.56,49.32.34,56.81,3.06A30.69,30.69,0,0,1,69,11.67L50.9,8.39s-10.72,1.92-15,5.23c4.63-3.55-14.13,26-10.26,15.53l82.62,15.3S114.91,29.2,120,24.58c10.15-5.42,40-4.77,52.06,1.61,1.51.8,15.91,8,15.91,8"/><path class="cls-13" d="M188.38,34.82c12.05,6.39,17.75,16.66,20.87,29.87,3.84,16.26-2.85,33.16-2.85,33.16s-25.83,22-28.47,20.74c-4.57-2.26-55.3-52.51-55.51-54s8.67-25.14,13.76-29.77C152.76,25.16,176.34,28.44,188.38,34.82Z"/><path class="cls-14" d="M182,46c7.9,4.14,13.3,10.94,16.69,19.49,5.12,12.89-.15,25.74-.15,25.74s-16.65,13.29-18.38,12.44c-3-1.46-40.24-38.08-40.46-39.08s6.77-15,9.68-18.12C159.14,39.88,174.07,41.85,182,46Z"/><path class="cls-15" d="M200.52,83c-.06.45-.13.89-.19,1.31q-9.57-6.64-18.75-13.83C174.4,64.89,167.46,59,160.7,52.92c-2.93-2.64-5.81-5.3-8.66-8l.73-.33q4.18,3.91,8.5,7.71c6.8,6,13.83,11.76,21,17.33Q191.2,76.55,200.52,83Z"/><path class="cls-15" d="M200.84,79.47h0c0,.28,0,.57,0,.84s-.07.79-.11,1.18c-.73-1.18-1.51-2.34-2.32-3.48a74,74,0,0,0-5.78-7.1A159,159,0,0,0,178.87,57.8c-5.27-4.58-10.72-9-15.88-13.78.66.06,1.32.16,2,.25,4.79,4.3,9.8,8.39,14.69,12.61a152.79,152.79,0,0,1,13.87,13.19A76.56,76.56,0,0,1,200.84,79.47Z"/><path class="cls-15" d="M198.21,64.42l-.47-.33a103.43,103.43,0,0,1-9.31-7.43,46.37,46.37,0,0,1-6.56-7.58c.36.17.69.34,1,.52a46.75,46.75,0,0,0,6,6.57A92.71,92.71,0,0,0,197.58,63C197.8,63.46,198,63.93,198.21,64.42Z"/><path class="cls-15" d="M193.34,95.21l-1.07.81c-.25-.15-.49-.31-.73-.47-5.71-3.82-10.16-9-14.43-14.2q-3.18-3.9-6.45-7.7l-3.35-3.74c-1.12-1.24-2.3-2.43-3.45-3.65q-7-7.2-14.58-13.79c-.86-.74-1.73-1.48-2.6-2.2.1-.15.18-.3.28-.44s.13-.22.2-.33q1.38,1.11,2.73,2.25C155,56.09,160,60.67,164.65,65.5c1.16,1.22,2.35,2.41,3.48,3.66l3.39,3.74,0,0c2.18,2.54,4.35,5.09,6.47,7.67,4.27,5.13,8.69,10.23,14.2,13.9C192.59,94.76,193,95,193.34,95.21Z"/><path class="cls-15" d="M186.63,100.13l-1.07.73c-2-1.52-3.9-3.06-5.86-4.59l-3.84-3c-1.27-1-2.52-2.07-3.77-3.12-5-4.18-9.79-8.56-14.41-13.13-3.52-2.75-7.05-5.5-10.51-8.35q-3.51-2.88-7-5.8c.12-.32.28-.67.45-1.06q3.6,3,7.24,6c3.46,2.83,7,5.56,10.54,8.31l0,0,0,0q6.95,6.8,14.42,13c2.48,2.09,5,4.1,7.57,6.11C182.52,96.9,184.56,98.54,186.63,100.13Z"/><path class="cls-16" d="M194.4,94.4c-.34.27-.7.54-1.06.81l-1.07.81c-.8.61-1.64,1.24-2.49,1.86l-45.72-43c.87-1.63,1.77-3.24,2.62-4.65.1-.15.18-.3.28-.44L171.52,72.9l0,0Z"/><path class="cls-16" d="M200.84,79.47h0c0,.28,0,.57,0,.84L198.37,78,162.36,44,163,44c.66.06,1.32.16,2,.25a69.39,69.39,0,0,1,7.62,1.52l27.88,26.37A36.22,36.22,0,0,1,200.84,79.47Z"/><path class="cls-17" d="M195,68.08c-3.4-8.55-8.1-14.44-16-18.57-7.15-3.75-21.54-5.51-31.2-1a13.75,13.75,0,0,1,1.56-2.09c9.8-6.57,25.15-5.05,33-.92S195.65,56.72,199,65.27c5.11,12.89,0,25.92,0,25.92s-3.47-1-3.34-1.55C196.7,84.71,198.08,75.89,195,68.08Z"/><path class="cls-18" d="M178.74,102.51c1.3-.64,16.79-12.28,16.92-12.87L199,91.19s-16.62,12.93-18.06,12.9C179.84,104.06,178.74,102.51,178.74,102.51Z"/><path class="cls-19" d="M205.44,53.15a42.53,42.53,0,0,0-19.55-18.66,52.07,52.07,0,0,0-13-4.23,53,53,0,0,0-13.64-1,68.39,68.39,0,0,0-13.56,2.13,51.28,51.28,0,0,0-6.52,2.15,18,18,0,0,0-3,1.56A10.79,10.79,0,0,0,134,37.63,82.84,82.84,0,0,0,127.81,50q-2.69,6.36-5,12.86c1.49-4.35,3.1-8.67,4.83-12.93a83.43,83.43,0,0,1,6-12.44,10.63,10.63,0,0,1,2.25-2.68A17.61,17.61,0,0,1,139,33.1a48.76,48.76,0,0,1,6.55-2.27,64.48,64.48,0,0,1,13.66-2.29,55.72,55.72,0,0,1,27,5.36,43.1,43.1,0,0,1,11.29,8A42,42,0,0,1,205.44,53.15Z"/><path class="cls-20" d="M123.44,61s2.82,7.8,1.62,6.53-6.6-3.74-6.6-3.74Z"/><path class="cls-21" d="M33.8,13.79C38.1,9.66,50.09,5.31,53.11,6s8.33,4.31,8.33,4.31L56,9.33A53.33,53.33,0,0,0,37.75,16c-5,3.15-9.57,14-9.57,14L24,29.31S29.5,17.91,33.8,13.79Z"/><path class="cls-19" d="M80.1,39C61.44,35.63,42.78,31.94,24,29.14c-.22,0-.31.29-.09.34,18.53,3.95,37.35,6.83,56,10,.28.05.4-.37.12-.42Z"/><path class="cls-19" d="M60.45,9.7a27.18,27.18,0,0,0-5.2-2.78,8.83,8.83,0,0,0-2.78-.6,10.93,10.93,0,0,0-2.84.46A82.77,82.77,0,0,0,38.57,11.1C34.7,12.43,32.36,15.86,30,19a71.52,71.52,0,0,0-6,10.28,72.52,72.52,0,0,1,5.85-10.42,44,44,0,0,1,3.63-4.76,12.12,12.12,0,0,1,2.25-2c.86-.53,1.75-1,2.64-1.45A69.91,69.91,0,0,1,49.45,6.1a11.58,11.58,0,0,1,3-.52,8.25,8.25,0,0,1,3,.71A15.85,15.85,0,0,1,60.45,9.7Z"/><path class="cls-19" d="M35.32,12.44c-5.17,3.74-9.23,11-11.47,16.83-.06.15.18.25.25.11,2.79-5.72,6.22-12.75,11.36-16.69.14-.11,0-.36-.14-.25Z"/><path class="cls-22" d="M62.28,89.65c-5.22-2.28-38.39-30.72-42.95-35.9a.35.35,0,0,1,.33-.57c11.64,2.21,38.23,7.68,60.56,12.36C76.38,72.55,69.12,81.69,62.28,89.65Z"/><polygon class="cls-23" points="82 39.6 89.27 40.95 82 57.22 85.41 66.64 70.59 63.51 82 39.6"/><path class="cls-24" d="M79.74,31.2l8.19,7.2-1,2.11-4-.74S77.1,52.68,76.24,54.63C71.64,65,67.34,68.11,64.33,69.72c-4.82,2.57-12.59,2.51-17.07,1.08a19.28,19.28,0,0,1-8.92-5.92,48.63,48.63,0,0,0,6.54-13.44C47.05,44.09,79.74,31.2,79.74,31.2Z"/><path class="cls-25" d="M45.28,23.35c9.92,1.83,24.37,6.26,34.46,7.85C77.87,36,72.66,48.45,67.42,57.52,63,65.21,53.28,69.9,45.49,68.33c-9.86-2-13.6-11.11-11.34-18.76C36.32,42.23,41.75,29.89,45.28,23.35Z"/><path class="cls-19" d="M78.61,31.23,61.88,27.57c-2.79-.62-5.58-1.19-8.35-1.89S48,24.25,45.27,23.39a0,0,0,0,1,0-.05s0,0,0,0c2.83.45,5.62,1.05,8.41,1.63s5.55,1.34,8.32,2l16.61,4.18s0,0,0,0S78.63,31.24,78.61,31.23Z"/><path class="cls-3" d="M54.61,32.77c5.25-1.36,9.77,1.64,10.56,3.88,1,2.8-.29,6.55-5.09,8.71a15.53,15.53,0,0,1-3.84,1.18c-.32,3,.23,11.15-2.4,12.47s-13.16-1.32-13.2-3,5.17-7.84,8.87-11.42C45.33,42,48.06,34.47,54.61,32.77Z"/><path class="cls-24" d="M49.51,44.61c-4.18-2.57-1.45-10.14,5.1-11.84,4.78-1.23,8.93,1.13,10.24,3.25a10.39,10.39,0,0,0-8.1-1.22c-6.55,1.7-8.17,8-5.1,11.84Z"/><path class="cls-24" d="M49.51,44.61l2.14,2c-3.41,3.31-8.11,8.81-8.78,11-1.32-.52-2.22-1.08-2.23-1.56C40.59,54.36,45.81,48.19,49.51,44.61Z"/><path class="cls-19" d="M59.39,32.65a6.93,6.93,0,0,1,5,2.31,5.25,5.25,0,0,1,1,5.49,10.2,10.2,0,0,1-3.79,4.28,15.16,15.16,0,0,1-5.27,2.15l.27-.39a24.73,24.73,0,0,1-.52,8.66A7.45,7.45,0,0,1,54,59c-1.36.71-2.86.52-4.27.51,1.4-.06,2.94,0,4.13-.72a2,2,0,0,0,.63-.79,10.22,10.22,0,0,0,.46-.94,11.76,11.76,0,0,0,.61-2,22,22,0,0,0,.47-4.21,28.54,28.54,0,0,0-.18-4.24.36.36,0,0,1,.28-.39,15.91,15.91,0,0,0,5-2.07,9.5,9.5,0,0,0,3.6-3.92,4.73,4.73,0,0,0-.7-5A6.88,6.88,0,0,0,59.39,32.65Z"/><path class="cls-20" d="M81,32.31c0,.61-1.41.58-1.87.5s-.87-1.46-.85-1.94S80.94,31.7,81,32.31Z"/><path class="cls-19" d="M45.8,23.59q-3.06,6.42-6,12.9c-1.95,4.33-3.88,8.67-5.64,13.08,1.58-4.48,3.34-8.9,5.12-13.3s3.62-8.78,5.49-13.15Z"/><g class="cls-10"><path class="cls-11" d="M149,46.9c.13-.17.25-.32.37-.45,9.8-6.57,25.15-5.05,33-.92S195.65,56.72,199,65.27c3,7.54,2.46,15.12,1.51,20.12l-3.71-4.59a41,41,0,0,0-15.64-22C174,54,159.93,50.55,149.86,55.94a98.07,98.07,0,0,0-8.19,10.76,18,18,0,0,1-2-2.13C139.45,63.61,145.87,50.7,149,46.9Z"/></g><path class="cls-26" d="M199,91.22c-2.43,2.09-4.89,4.16-7.4,6.17a91.55,91.55,0,0,1-7.76,5.75,14.72,14.72,0,0,1-2.22,1.08,2.36,2.36,0,0,1-.69.12,1.61,1.61,0,0,1-.67-.28,10.61,10.61,0,0,1-1-.72c-1.27-1-2.46-2.08-3.66-3.15-2.38-2.17-4.7-4.38-7-6.61-9.25-8.91-18.27-18-27.26-27.21,0,0,0,0,0-.05h.05q13.64,13.61,27.5,27c2.32,2.21,4.66,4.41,7,6.55,1.19,1.07,2.39,2.14,3.65,3.12.31.24.63.48.95.68a1.53,1.53,0,0,0,.43.2,2.19,2.19,0,0,0,.47-.14,14.5,14.5,0,0,0,2-1.2C188.8,99,193.9,95.08,199,91.16a0,0,0,0,1,.06,0S199,91.21,199,91.22Z"/></g></g></g></svg>