<svg xmlns="http://www.w3.org/2000/svg" viewBox="0 0 221.76 153.84"><defs><style>.cls-1{fill:#80909c;}.cls-2{fill:#404754;}.cls-3{fill:#934624;}.cls-4{fill:#8e4125;}.cls-5{fill:#82391c;}.cls-6{fill:#5c6e77;}.cls-7{fill:#6f7f89;}.cls-8{fill:#af5e31;}.cls-9{fill:#9b4b23;}.cls-10{fill:#8e4220;}.cls-11{fill:#78878e;}.cls-12{fill:#516672;}.cls-13{fill:#e0faff;}.cls-14{fill:#101928;}</style></defs><title>Chest Bottom</title><g id="Layer_2" data-name="Layer 2"><g id="Layer_1-2" data-name="Layer 1"><path class="cls-1" d="M114.36,68.59l7.21,9,10.35,74.66-1,.78c-.81.06-1.89.58-3.27.85C108.07,150.69,39.25,133,18.09,127.92A5.6,5.6,0,0,1,14,124C10.45,111.88,2.89,70.61.06,47.86A2.17,2.17,0,0,1,2.6,45.37C16.25,48.14,75,60.06,114.36,68.59Z"/><path class="cls-2" d="M221.76,23.34c-3.23,27.65-13,73.12-19.46,88.34a41.37,41.37,0,0,1-1.53,3.91c-.6.42-1.21.85-1.85,1.28-16.83,11.42-47,26.54-64.81,36.38-.65.36-1.46-.56-2.08-.22-.54-.52-.93-.2-1.53-1.52-5.77-12.87-13.6-60.51-16.14-82.92C114.36,68.59,213.76,27,221.76,23.34Z"/><path class="cls-3" d="M197.87,55.9c-2.25,17.48-7.58,42.54-11.05,48.13C177,111,159,119.86,148.51,125.75c-5.11-1.3-9.91-29.23-11.69-44a2,2,0,0,1,1.18-2c7.86-3.4,47.59-20.59,58-25.19A1.36,1.36,0,0,1,197.87,55.9Z"/><path class="cls-4" d="M195.67,70.07l-.24,1.32-.7.18-4.89,1.28L185,74.2C178.5,76,172.05,78,165.66,80.12c-9.35,3-18.57,6.39-27.69,10-.06-.42-.13-.84-.19-1.26q4.16-1.71,8.36-3.31c3.14-1.23,6.33-2.36,9.5-3.53s6.37-2.25,9.58-3.29c6.42-2.1,12.9-4,19.41-5.82l4.89-1.32,4.91-1.25Z"/><path class="cls-4" d="M187,85.19a4.58,4.58,0,0,1-.25,1.39l-.46,1.2c-.19.38-.36.77-.57,1.15a17.8,17.8,0,0,1-7.41,6.68c-2.91,1.58-5.92,2.78-8.8,4.27A112,112,0,0,0,153,110.07a114.1,114.1,0,0,0-9.2,7.51c0-.1-.07-.21-.1-.32a116.59,116.59,0,0,1,8.88-7.74A111.55,111.55,0,0,1,169,98.91c1.43-.78,2.91-1.49,4.37-2.21s2.93-1.38,4.33-2.16a16.56,16.56,0,0,0,6.87-6.24c.18-.33.34-.69.51-1l.4-1.09a2.16,2.16,0,0,0,0-1.85c-.51-1.07-2.26-1.23-3.47-.66a54.32,54.32,0,0,0-8.17,5.07c-2.64,1.88-5.23,3.87-8,5.68a72.51,72.51,0,0,1-8.61,4.79,131,131,0,0,1-16.59,6.1c-.08-.37-.15-.74-.23-1.12A137.75,137.75,0,0,0,156.69,98a72.14,72.14,0,0,0,8.4-4.74c2.68-1.8,5.24-3.8,7.89-5.72a56.62,56.62,0,0,1,8.43-5.14,4.89,4.89,0,0,1,2.77-.38,3.23,3.23,0,0,1,2.44,1.64A3.19,3.19,0,0,1,187,85.19Z"/><path class="cls-4" d="M196.69,54.37a161.59,161.59,0,0,1-24.55,10.5c10.08-4.38,19.51-8.48,23.83-10.4A1.22,1.22,0,0,1,196.69,54.37Z"/><path class="cls-5" d="M195.37,71.7c-.3,1.67-.62,3.33-.94,5l-54.12,27c-.27-1.36-.53-2.73-.79-4.11Z"/><path class="cls-5" d="M193.8,60.2,137.65,88c-.21-1.47-.41-2.89-.57-4.22l55.43-27.41Z"/><path class="cls-5" d="M191.36,90.5c-.47,1.87-.94,3.63-1.41,5.22l-45.79,23c-.14-.37-.26-.75-.39-1.14,0-.1-.07-.21-.1-.32-.25-.78-.49-1.6-.73-2.45Z"/><path class="cls-6" d="M182.35,102.25,187,104c-9.84,6.93-28,15.83-38.51,21.72-1-.27-1.81-1.11-2.8-3.24C156.45,116.55,173.27,108.65,182.35,102.25Z"/><path class="cls-7" d="M182.35,102.25c2.43-3.4,8.41-29.33,10.56-46.48l3.53-1.51a1.08,1.08,0,0,1,1.5,1.12c-2.21,17.49-7.41,43-10.92,48.65Z"/><path class="cls-8" d="M97.24,84.1c1.85,14.74,6.78,38.78,8.61,46.52a1.13,1.13,0,0,1-1.3,1.37c-20.94-3.62-67.15-16.42-70.92-17.69s-4.63-.67-5.78-3.81c-4.32-11.77-7.56-38.12-8.17-43.36a.64.64,0,0,1,.79-.71c7.11,1.56,54.76,12,75.27,16.07A1.87,1.87,0,0,1,97.24,84.1Z"/><path class="cls-9" d="M102.39,114.3c-3.19-.7-6.45-1.21-9.71-1.68s-6.6-1-9.9-1.48a7.21,7.21,0,0,1-2.72-.85,4.73,4.73,0,0,1-1.89-2.39,5.27,5.27,0,0,1,1.38-5.56,4.9,4.9,0,0,1,2.8-1.13,18.43,18.43,0,0,1,2.65.23c1.66.19,3.32.43,5,.66,3.31.48,6.61,1,9.89,1.69l.54.11c.09.51.18,1,.28,1.53l-1.08-.18c-3.28-.56-6.58-1-9.87-1.49-1.64-.21-3.29-.44-4.94-.62a17.57,17.57,0,0,0-2.33-.19,3.11,3.11,0,0,0-1.75.71,3.48,3.48,0,0,0-.85,3.63A3,3,0,0,0,81,108.74a3.6,3.6,0,0,0,.91.36,8.53,8.53,0,0,0,1.13.21c3.28.5,6.59.92,9.9,1.39,3,.46,6,1,9,1.62Q102.2,113.32,102.39,114.3Z"/><path class="cls-9" d="M103.56,127.45c-4-.82-7.75-2.74-11.34-4.68a62.18,62.18,0,0,0-11-5.17,44.62,44.62,0,0,0-12-1.55,86.52,86.52,0,0,1-12.32-1,71.11,71.11,0,0,1-12-3c-2-.69-3.85-1.41-5.82-2.3a4.76,4.76,0,0,1-2.4-2.75,5,5,0,0,1,.17-3.63,5.61,5.61,0,0,1,1-1.52c.35-.36.69-.72,1-1.09.67-.75,1.32-1.52,2-2.31,1.29-1.57,2.54-3.2,3.9-4.78,2.65-3.15,6.09-6.14,10.32-7.29a18.72,18.72,0,0,1,6.39-.69,32.51,32.51,0,0,1,6.24,1c4,1.06,7.87,2.69,11.68,4.1l2.86,1c1,.34,1.94.64,2.9,1,1.93.66,3.9,1.17,5.85,1.74,2.7.69,5.41,1.36,8.15,1.92.09.54.18,1.09.28,1.64A122.45,122.45,0,0,1,78.71,92.4c-3.87-1.41-7.63-3-11.52-4s-7.92-1.4-11.63-.26-6.85,3.6-9.46,6.65c-1.33,1.51-2.58,3.12-3.9,4.71-.66.8-1.33,1.59-2,2.36-.35.39-.72.76-1.08,1.14a3.32,3.32,0,0,0-.7,1,3.16,3.16,0,0,0,1.4,4.13c1.75.81,3.7,1.57,5.59,2.24a79.3,79.3,0,0,0,11.73,3.15,85.85,85.85,0,0,0,12.13,1.28c4.08.22,8.28.5,12.24,1.87C89.37,119.47,95.55,125.34,103.56,127.45Z"/><path class="cls-9" d="M36.37,90.45a6.3,6.3,0,0,1-1.88,3.68,61.26,61.26,0,0,1-9.27,7.07c-.07-.3-.13-.6-.2-.9a2,2,0,0,1-.05-.24,68.84,68.84,0,0,0,8.41-7,4.91,4.91,0,0,0,1.38-2.74,1.25,1.25,0,0,0-.36-1A4.14,4.14,0,0,0,33,88.83c-2.34-.71-4.67-1.42-7-2.07l-3.73-1.05,0-.16c-.1-.63-.2-1.25-.29-1.87,1.53.43,3.05.87,4.57,1.33,2.35.69,4.68,1.45,7,2.2a5.38,5.38,0,0,1,2,.92A2.82,2.82,0,0,1,36.37,90.45Z"/><path class="cls-9" d="M97.29,84.56l-1.13-.11-6.34-.55c-.7-.1-1.12-.23-1.66-.34l-1.54-.34-3.09-.62Q77.34,81.42,71,80.75c-4.2-.4-8.4-.88-12.6-1.16S50,79.1,45.77,78.85c-8.36-.5-16.84-1.16-25-3.35l0-.25c-.06-.46-.13-.92-.18-1.35l.32.09c8.16,2,16.58,2.68,25,3.1,4.22.22,8.45.39,12.69.65s8.47.71,12.7,1.09,8.44,1.12,12.62,2l3.13.65,1.56.36c.5.11,1.1.27,1.44.31l6.27.6s0,0,0,0a1.85,1.85,0,0,1,.94,1.4Z"/><path class="cls-10" d="M104.25,123.4,26,104.42c-.35-1.31-.68-2.69-1-4.12l78.38,19C103.69,120.76,104,122.13,104.25,123.4Z"/><path class="cls-10" d="M100.8,106.05,22.91,89.54c-.24-1.34-.46-2.68-.67-4L100.07,102C100.31,103.38,100.55,104.72,100.8,106.05Z"/><path class="cls-10" d="M97.94,89.29l-77.23-14c-.2-1.44-.37-2.76-.52-3.92l77.2,14C97.56,86.61,97.74,87.92,97.94,89.29Z"/><path class="cls-11" d="M19.68,67.18c1.89,15.92,5.62,41.46,8.85,44.8,0,0,2.51-1.41,4.54-2.5a5,5,0,0,1-1.31-2.24c-4.8-13.1-7.77-40-7.77-40l-3.46-.76A.7.7,0,0,0,19.68,67.18Z"/><path class="cls-7" d="M33,109.44c.84.73,2,.78,4.5,1.61,3.54,1.19,45.05,11.62,67.5,16,.34,1.1.65,2.43.87,3.48a1.22,1.22,0,0,1-1.4,1.45c-21-3.62-67.11-16.41-70.88-17.68-3.09-1-4.2-.86-5.1-2.32Z"/><path class="cls-1" d="M130.07,150.49c.23.11,2,1,3.12,1.72a5.07,5.07,0,0,1,.91,1c-.74.4-6.13.63-6.48.57a2.58,2.58,0,0,1,.15-.94C128.67,151.79,129.8,150.35,130.07,150.49Z"/><path class="cls-12" d="M119.32,67.09c.44.58-3.83,6.13-4.43,6s-2.81-4.21-2.71-4.62S118.5,66.05,119.32,67.09Z"/><polyline class="cls-11" points="48.15 118.5 44.44 124.05 31.77 125.34 42.13 121.35 44.43 117.37"/><polygon class="cls-7" points="47.85 116.78 44.43 117.37 42.13 121.35 31.77 125.34 43.08 122.55 47.85 116.78"/><path class="cls-13" d="M104.72,132c-5.19-.89-10.36-1.84-15.53-2.8s-10.31-2.06-15.46-3.14c-10.28-2.2-20.53-4.6-30.68-7.41a104.24,104.24,0,0,1-15-5.24l-.46-.22a1.93,1.93,0,0,1-.54-.4,3.66,3.66,0,0,1-.65-1,12.37,12.37,0,0,1-.78-1.91c-.42-1.28-.75-2.56-1-3.86-.6-2.58-1.05-5.18-1.45-7.78-1.61-10.41-2.61-20.89-3.39-31.37q.9,7.83,2,15.64c.7,5.2,1.45,10.4,2.37,15.57.46,2.58,1,5.15,1.55,7.69.3,1.27.63,2.53,1,3.74a12.29,12.29,0,0,0,.72,1.73,3.11,3.11,0,0,0,.45.67.66.66,0,0,0,.26.18l.43.21a104.85,104.85,0,0,0,14.8,5c10.08,2.9,20.32,5.28,30.55,7.68l15.37,3.5Q97,130.33,104.72,132Z"/><polygon class="cls-14" points="107.03 1.58 200.25 22.55 113.25 60.55 16.25 39.55 107.03 1.58"/><path class="cls-1" d="M1.65,43.49C.87,44,.73,45.18,2.84,45.7c18.1,4.42,107.88,23.12,111.52,22.89,4.06-.25,108.12-43.1,107.4-45.25S117.13.13,106.51,0C96.35-.12,18.74,33,1.65,43.49ZM110.56,58S24.84,42,24.39,39.34,97.29,5.78,105.63,5.88s65.83,10.36,88.17,16.83Z"/><path class="cls-12" d="M2.82,42.8C3.64,42.46,9.2,46.67,8,47S.69,49,.13,48.46c-.33-.3,0-2,.38-3.49C.74,43.92,2.17,43.07,2.82,42.8Z"/><path class="cls-13" d="M109.11,67.6c-27.42-5.11-54.9-10.24-82-16.59C20.67,49.52,14.13,48.16,8,45.93c-.3-.11-.53.4-.22.53a99.88,99.88,0,0,0,15.76,4.7c8.26,2,16.57,3.77,24.9,5.48q24.81,5.1,49.76,9.51,5.41,1,10.84,1.87c.27,0,.39-.37.12-.42Z"/><path class="cls-13" d="M109.08,67.71c-26.9-5.17-53.84-10.44-80.46-16.88-6.27-1.51-12.7-2.92-18.75-5.21A5.53,5.53,0,0,0,8,46.37c12.71,5.22,28.86,7,42.21,9.84Q74.29,61.38,98.5,66q5.25,1,10.52,2c.14,0,.2-.19.06-.21Z"/><path class="cls-13" d="M101.61,1.1Q79,9,56.92,18.14c-8.7,3.58-17.39,7.2-26,11C21.76,33.13,12,36.85,3.47,42c-.33.2-.11.79.27.64,9-3.44,17.61-8.19,26.4-12.16,9.12-4.12,18.3-8.14,27.55-12,14.54-6,29.19-11.85,44-17.15.18-.07.1-.35-.08-.29Z"/><polygon class="cls-13" points="11.02 46.37 7.08 43.55 2.82 42.8 6.35 45.04 7.48 46.7 11.02 46.37"/></g></g></svg>