<svg xmlns="http://www.w3.org/2000/svg" viewBox="0 0 98.43 122.36"><defs><style>.cls-1{fill:#f0aa00;}.cls-2{fill:#fc0;}.cls-3{fill:#fff;opacity:0.2;}.cls-4{fill:#da8100;}.cls-5{fill:#ea9c00;}</style></defs><title>Coin 4</title><g id="Layer_2" data-name="Layer 2"><g id="Coin_Pack" data-name="Coin Pack"><g id="Coin_4" data-name="Coin 4"><g id="Coin"><ellipse class="cls-1" cx="43.95" cy="61.18" rx="43.95" ry="61.18"/><rect class="cls-1" x="44.82" width="9.67" height="122.36"/><ellipse class="cls-2" cx="54.49" cy="61.18" rx="43.95" ry="61.18"/><path class="cls-3" d="M91.26,39.24a16.55,16.55,0,0,1-8.35.63c-8.2-1.91-15.14-7.72-19.85-15.4A61.94,61.94,0,0,1,54.79,0c17.91.17,33.27,15.26,40,36.78A13.67,13.67,0,0,1,91.26,39.24Z"/><path class="cls-3" d="M46.66,95.54c-17.72-10.76-31.55-27-35.16-47.09,2.91-19.1,12.21-34.9,24.64-42.86,2,12.24,6.2,23.88,13.81,33.9,8.31,11,20.49,19,34.45,20a30,30,0,0,0,13.93-2.34c.06,1.33.1,2.67.1,4,0,20-6.91,37.81-17.6,49A143.71,143.71,0,0,1,46.66,95.54Z"/><path class="cls-3" d="M56.87,122.27c-.79.06-1.59.09-2.38.09-13.46,0-25.5-8.43-33.56-21.7C31.43,109.88,43.84,116.93,56.87,122.27Z"/><path class="cls-4" d="M22.07,60.05c0,26,14.85,47,33.17,47s33.17-21,33.17-47S73.55,13,55.24,13,22.07,34.08,22.07,60.05Z"/><path class="cls-1" d="M20.46,61.18c0,25.34,14.39,45.89,32.13,45.89S84.71,86.52,84.71,61.18,70.33,15.3,52.59,15.3,20.46,35.84,20.46,61.18Z"/></g></g></g></g><p xmlns=""/></svg>