<svg xmlns="http://www.w3.org/2000/svg" viewBox="0 0 96.68 120.18"><defs><style>.cls-1{fill:#f0aa00;}.cls-2{fill:#fc0;}.cls-3{fill:#fff;opacity:0.2;}.cls-4{fill:#fcdc59;}.cls-5{fill:#da8100;}.cls-6{fill:#ea9c00;}</style></defs><title>Coin 3</title><g id="Layer_2" data-name="Layer 2"><g id="Coin_Pack" data-name="Coin Pack"><g id="Coin_3" data-name="Coin 3"><ellipse class="cls-1" cx="53.52" cy="60.09" rx="43.16" ry="60.09"/><rect class="cls-1" x="43.16" width="9.5" height="120.18"/><ellipse class="cls-2" cx="43.16" cy="60.09" rx="43.16" ry="60.09"/><path class="cls-3" d="M7,38.54a16.34,16.34,0,0,0,8.21.62C23.3,37.29,30.12,31.58,34.75,24A61,61,0,0,0,42.87,0C25.27.18,10.19,15,3.57,36.14A13.78,13.78,0,0,0,7,38.54Z"/><path class="cls-3" d="M50.85,93.84c17.41-10.57,31-26.53,34.54-46.25-2.86-18.76-12-34.28-24.21-42.1-1.91,12-6.09,23.46-13.56,33.3C39.45,49.56,27.5,57.48,13.78,58.44A29.24,29.24,0,0,1,.1,56.14c-.06,1.31-.1,2.62-.1,4,0,19.67,6.79,37.14,17.29,48.1A141.16,141.16,0,0,0,50.85,93.84Z"/><path class="cls-4" d="M40.83,120.09c.77.06,1.55.09,2.33.09,13.22,0,25-8.28,33-21.31C65.81,107.93,53.62,114.85,40.83,120.09Z"/><path class="cls-5" d="M75,59c0,25.51-14.59,46.18-32.58,46.18S9.85,84.49,9.85,59,24.44,12.79,42.43,12.79,75,33.47,75,59Z"/><path class="cls-1" d="M76.58,60.09C76.58,85,62.46,105.16,45,105.16S13.48,85,13.48,60.09,27.6,15,45,15,76.58,35.2,76.58,60.09Z"/></g></g></g><p xmlns=""/></svg>