<svg xmlns="http://www.w3.org/2000/svg" xmlns:xlink="http://www.w3.org/1999/xlink" viewBox="0 0 251.38 218.74"><defs><style>.cls-1{fill:#e88f00;}.cls-2{fill:#bc7002;}.cls-3{fill:#934624;}.cls-4{fill:#8e4125;}.cls-5{fill:#82391c;}.cls-6{fill:#bf7202;}.cls-7{fill:#af5e31;}.cls-8{fill:#9b4b23;}.cls-9{fill:#8e4220;}.cls-10{fill:#f49b25;}.cls-11{fill:#aa6304;}.cls-12{fill:#323842;}.cls-13{fill:#fc0;}.cls-14,.cls-25{opacity:0.2;}.cls-15,.cls-25{fill:#283753;}.cls-16{fill:#80909c;}.cls-17{fill:#e0faff;}.cls-18{fill:url(#linear-gradient);}.cls-19{fill:url(#linear-gradient-2);}.cls-20{fill:url(#linear-gradient-3);}.cls-21{fill:url(#linear-gradient-4);}.cls-22{fill:url(#linear-gradient-5);}.cls-23{fill:url(#linear-gradient-6);}.cls-24{fill:#a04d37;}.cls-26{fill:url(#linear-gradient-7);}.cls-27{fill:#c4750c;}.cls-28{fill:#381e02;opacity:0.19;}.cls-29{fill:#77450e;}.cls-30{fill:#ed9515;}.cls-31{fill:#ce7e15;}</style><linearGradient id="linear-gradient" x1="209.36" y1="-109.33" x2="240.24" y2="-194.17" gradientTransform="matrix(0.99, -0.17, 0.17, 0.99, -96.07, 247.27)" gradientUnits="userSpaceOnUse"><stop offset="0" stop-color="#af5e31"/><stop offset="0.5" stop-color="#d37f54"/><stop offset="0.73" stop-color="#c16e42"/><stop offset="1" stop-color="#af5e31"/></linearGradient><linearGradient id="linear-gradient-2" x1="45.46" y1="43.77" x2="147.47" y2="43.77" gradientUnits="userSpaceOnUse"><stop offset="0" stop-color="#9b4b23"/><stop offset="0.5" stop-color="#af5b3e"/><stop offset="0.65" stop-color="#a85635"/><stop offset="1" stop-color="#9b4b23"/></linearGradient><linearGradient id="linear-gradient-3" x1="57.96" y1="33.55" x2="155.63" y2="33.55" xlink:href="#linear-gradient-2"/><linearGradient id="linear-gradient-4" x1="28.88" y1="62.14" x2="135.78" y2="62.14" xlink:href="#linear-gradient-2"/><linearGradient id="linear-gradient-5" x1="81.55" y1="19.09" x2="180.21" y2="19.09" xlink:href="#linear-gradient-2"/><linearGradient id="linear-gradient-6" x1="24.42" y1="80.06" x2="129.98" y2="80.06" xlink:href="#linear-gradient-2"/><linearGradient id="linear-gradient-7" x1="11.81" y1="241.33" x2="32.92" y2="115.76" gradientTransform="translate(85.82 -108.7) rotate(0.7)" gradientUnits="userSpaceOnUse"><stop offset="0" stop-color="#e88f00"/><stop offset="0.12" stop-color="#ea9300"/><stop offset="0.25" stop-color="#eea000"/><stop offset="0.39" stop-color="#f6b500"/><stop offset="0.49" stop-color="#fc0"/><stop offset="0.56" stop-color="#fabf00"/><stop offset="0.73" stop-color="#f0a500"/><stop offset="0.88" stop-color="#ea9500"/><stop offset="1" stop-color="#e88f00"/></linearGradient></defs><title>Wood Gold Chest 1</title><g id="Layer_2" data-name="Layer 2"><g id="Layer_1-2" data-name="Layer 1"><g id="Wood_Gold_Chest_1" data-name="Wood Gold Chest 1"><path class="cls-1" d="M132.1,133.49l7.2,8.94,10.36,74.67-1,.78c-.81.05-1.89.58-3.27.85C125.81,215.59,57,197.92,35.83,192.82a5.63,5.63,0,0,1-4.09-3.89c-3.55-12.15-11.11-53.43-13.95-76.18a2.18,2.18,0,0,1,2.55-2.48C34,113,92.73,125,132.1,133.49Z"/><path class="cls-2" d="M239.49,88.23c-3.22,27.65-13,73.13-19.45,88.34a40.62,40.62,0,0,1-1.53,3.92l-1.85,1.28c-16.83,11.41-47,26.54-64.82,36.38-.64.36-1.45-.56-2.07-.22-.54-.52-.93-.21-1.53-1.53-5.77-12.86-13.6-60.51-16.14-82.91C132.1,133.49,231.5,91.94,239.49,88.23Z"/><path class="cls-3" d="M215.61,120.8c-2.25,17.47-7.58,42.54-11.05,48.13-9.84,6.93-27.81,15.83-38.31,21.71-5.11-1.3-9.91-29.23-11.69-44a2,2,0,0,1,1.18-2.05c7.86-3.4,47.59-20.6,58-25.19A1.36,1.36,0,0,1,215.61,120.8Z"/><path class="cls-4" d="M213.41,135l-.24,1.32-.7.18-4.89,1.28-4.86,1.35c-6.48,1.84-12.93,3.78-19.32,5.92-9.35,3-18.57,6.39-27.69,10-.06-.42-.13-.84-.19-1.26q4.15-1.71,8.36-3.31c3.14-1.23,6.33-2.36,9.5-3.53s6.37-2.25,9.58-3.29c6.42-2.1,12.9-4,19.41-5.82l4.89-1.32,4.91-1.25Z"/><path class="cls-4" d="M204.73,150.09a4.58,4.58,0,0,1-.25,1.39l-.46,1.2c-.19.38-.36.77-.57,1.15a17.8,17.8,0,0,1-7.41,6.68c-2.91,1.58-5.92,2.78-8.8,4.27A112,112,0,0,0,170.71,175a114.1,114.1,0,0,0-9.2,7.51c0-.1-.07-.21-.1-.32a116.59,116.59,0,0,1,8.88-7.74,111.55,111.55,0,0,1,16.46-10.61c1.43-.78,2.91-1.49,4.37-2.21s2.93-1.38,4.33-2.16a16.56,16.56,0,0,0,6.87-6.24c.18-.33.34-.69.51-1l.4-1.09a2.16,2.16,0,0,0,0-1.85c-.51-1.07-2.26-1.23-3.47-.66a54.32,54.32,0,0,0-8.17,5.07c-2.64,1.88-5.23,3.87-8,5.68a72.51,72.51,0,0,1-8.61,4.79,131,131,0,0,1-16.59,6.1c-.08-.37-.15-.74-.23-1.12a137.75,137.75,0,0,0,16.27-6.15,72.14,72.14,0,0,0,8.4-4.74c2.68-1.8,5.24-3.8,7.89-5.72a56.62,56.62,0,0,1,8.43-5.14,4.89,4.89,0,0,1,2.77-.38,3.23,3.23,0,0,1,2.44,1.64A3.19,3.19,0,0,1,204.73,150.09Z"/><path class="cls-4" d="M214.43,119.27a161.59,161.59,0,0,1-24.55,10.5c10.08-4.38,19.51-8.48,23.83-10.4A1.22,1.22,0,0,1,214.43,119.27Z"/><path class="cls-5" d="M213.11,136.6c-.3,1.67-.62,3.33-.94,5l-54.12,27c-.27-1.36-.53-2.73-.79-4.11Z"/><path class="cls-5" d="M211.54,125.1l-56.15,27.78c-.21-1.47-.41-2.89-.57-4.22l55.43-27.41Z"/><path class="cls-5" d="M209.1,155.4c-.47,1.87-.94,3.63-1.41,5.22l-45.79,23c-.14-.37-.26-.75-.39-1.14,0-.1-.07-.21-.1-.32-.25-.78-.49-1.6-.73-2.45Z"/><path class="cls-6" d="M200.09,167.15l4.67,1.78c-9.84,6.93-28,15.83-38.51,21.71-1-.26-1.81-1.1-2.8-3.23C174.19,181.44,191,173.55,200.09,167.15Z"/><path class="cls-1" d="M200.09,167.15c2.43-3.4,8.41-29.34,10.56-46.48l3.53-1.51a1.08,1.08,0,0,1,1.5,1.12c-2.21,17.49-7.41,43-10.92,48.65Z"/><path class="cls-7" d="M115,149c1.85,14.73,6.78,38.78,8.61,46.51a1.13,1.13,0,0,1-1.3,1.37c-20.94-3.61-67.15-16.41-70.92-17.68s-4.63-.68-5.79-3.82C41.27,163.62,38,137.27,37.42,132a.64.64,0,0,1,.78-.72c7.12,1.56,54.77,12,75.28,16.08A1.89,1.89,0,0,1,115,149Z"/><path class="cls-8" d="M120.13,179.2c-3.19-.7-6.45-1.21-9.71-1.68s-6.6-1-9.9-1.48a7.21,7.21,0,0,1-2.72-.85,4.73,4.73,0,0,1-1.89-2.39,5.27,5.27,0,0,1,1.38-5.56,4.9,4.9,0,0,1,2.8-1.13,18.43,18.43,0,0,1,2.65.23c1.66.19,3.32.43,5,.66,3.31.48,6.61,1,9.89,1.69l.54.11c.09.51.18,1,.28,1.53l-1.08-.18c-3.28-.56-6.58-1-9.87-1.49-1.64-.21-3.29-.44-4.94-.62a17.57,17.57,0,0,0-2.33-.19,3.11,3.11,0,0,0-1.75.71,3.48,3.48,0,0,0-.85,3.63,3,3,0,0,0,1.15,1.45,3.6,3.6,0,0,0,.91.36,8.53,8.53,0,0,0,1.13.21c3.28.5,6.59.92,9.9,1.39,3,.46,6,1,9,1.62Z"/><path class="cls-8" d="M121.3,192.35c-4-.82-7.75-2.74-11.34-4.68a62.18,62.18,0,0,0-11-5.17,44.62,44.62,0,0,0-12-1.55,86.52,86.52,0,0,1-12.32-1,71.11,71.11,0,0,1-12-3c-2-.69-3.85-1.41-5.82-2.3a4.76,4.76,0,0,1-2.4-2.75,5,5,0,0,1,.17-3.63,5.61,5.61,0,0,1,1-1.52c.35-.36.69-.72,1-1.09.67-.75,1.32-1.52,2-2.31,1.29-1.57,2.54-3.2,3.9-4.78,2.65-3.15,6.09-6.14,10.32-7.29a18.72,18.72,0,0,1,6.39-.69,32.51,32.51,0,0,1,6.24,1c4,1.06,7.87,2.69,11.68,4.1l2.86,1c1,.34,1.94.64,2.9,1,1.93.66,3.9,1.17,5.85,1.74,2.7.69,5.41,1.36,8.15,1.92.09.54.18,1.09.28,1.64a122.45,122.45,0,0,1-20.66-5.66c-3.87-1.41-7.63-3-11.52-4s-7.92-1.4-11.63-.26-6.85,3.6-9.46,6.65c-1.33,1.51-2.58,3.12-3.9,4.71-.66.8-1.33,1.59-2,2.36-.35.39-.72.76-1.08,1.14a3.32,3.32,0,0,0-.7,1,3.16,3.16,0,0,0,1.4,4.13c1.75.81,3.7,1.57,5.59,2.24a79.3,79.3,0,0,0,11.73,3.15A85.85,85.85,0,0,0,87,179.73c4.08.22,8.28.5,12.24,1.87C107.11,184.37,113.29,190.24,121.3,192.35Z"/><path class="cls-8" d="M54.11,155.35A6.3,6.3,0,0,1,52.23,159,61.26,61.26,0,0,1,43,166.1c-.07-.3-.13-.6-.2-.9a2,2,0,0,1,0-.24,68.84,68.84,0,0,0,8.41-7,4.91,4.91,0,0,0,1.38-2.74,1.25,1.25,0,0,0-.36-1,4.14,4.14,0,0,0-1.38-.55c-2.34-.71-4.67-1.42-7-2.07l-3.73-1,0-.16c-.1-.63-.2-1.25-.29-1.87,1.53.43,3.05.87,4.57,1.33,2.35.69,4.68,1.45,7,2.2a5.38,5.38,0,0,1,2,.92A2.82,2.82,0,0,1,54.11,155.35Z"/><path class="cls-8" d="M115,149.46l-1.13-.11-6.34-.55c-.7-.1-1.12-.23-1.66-.34l-1.54-.34-3.09-.62q-6.19-1.19-12.49-1.85c-4.2-.4-8.4-.88-12.6-1.16s-8.44-.49-12.67-.74c-8.36-.5-16.84-1.16-25-3.35l0-.25c-.06-.46-.13-.92-.18-1.35l.32.09c8.16,2,16.58,2.68,25,3.1,4.22.22,8.45.39,12.69.65s8.47.71,12.7,1.09,8.44,1.12,12.62,2l3.13.65,1.56.36c.5.11,1.1.27,1.44.31l6.27.6h0A1.85,1.85,0,0,1,115,149Z"/><path class="cls-9" d="M122,188.3l-78.24-19c-.35-1.31-.68-2.69-1-4.12l78.38,19C121.43,185.66,121.72,187,122,188.3Z"/><path class="cls-9" d="M118.54,171,40.65,154.44c-.24-1.34-.46-2.68-.67-4l77.83,16.49C118.05,168.28,118.29,169.62,118.54,171Z"/><path class="cls-9" d="M115.68,154.19l-77.23-14c-.2-1.44-.37-2.76-.52-3.92l77.2,14C115.3,151.51,115.48,152.82,115.68,154.19Z"/><path class="cls-10" d="M37.42,132.08C39.31,148,43,173.53,46.27,176.87c0,0,2.51-1.41,4.54-2.5a4.92,4.92,0,0,1-1.31-2.24c-4.81-13.09-7.77-40-7.77-40l-3.46-.75A.69.69,0,0,0,37.42,132.08Z"/><path class="cls-6" d="M50.77,174.34c.85.73,2,.78,4.51,1.61,3.54,1.19,45.05,11.62,67.5,16,.34,1.09.65,2.43.87,3.47a1.22,1.22,0,0,1-1.4,1.46c-21-3.63-67.11-16.42-70.88-17.68-3.09-1-4.2-.86-5.1-2.33Z"/><path class="cls-11" d="M147.81,215.39a34.4,34.4,0,0,1,3.12,1.72,5.09,5.09,0,0,1,.91,1c-.74.41-6.13.64-6.48.58a2.35,2.35,0,0,1,.15-.94C146.41,216.68,147.54,215.25,147.81,215.39Z"/><path class="cls-12" d="M137.06,132c.44.57-3.83,6.13-4.43,6s-2.82-4.2-2.71-4.61S136.24,131,137.06,132Z"/><polyline class="cls-10" points="65.89 183.39 62.18 188.94 49.51 190.24 59.87 186.25 62.17 182.27"/><polygon class="cls-6" points="65.59 181.68 62.17 182.27 59.87 186.25 49.51 190.24 60.82 187.45 65.59 181.68"/><path class="cls-13" d="M122.45,196.89q-7.77-1.35-15.52-2.81t-15.46-3.14c-10.28-2.19-20.53-4.6-30.68-7.4a103.08,103.08,0,0,1-15-5.25l-.46-.22a1.71,1.71,0,0,1-.54-.39,3.83,3.83,0,0,1-.65-1,12.79,12.79,0,0,1-.78-1.91c-.42-1.28-.75-2.57-1-3.86-.59-2.58-1-5.18-1.44-7.78-1.61-10.42-2.61-20.89-3.39-31.38q.9,7.83,2,15.64c.7,5.21,1.45,10.41,2.37,15.57.46,2.58,1,5.15,1.55,7.7.3,1.26.63,2.52,1,3.74a12.8,12.8,0,0,0,.72,1.73,2.79,2.79,0,0,0,.45.67.73.73,0,0,0,.25.18l.44.2a103.63,103.63,0,0,0,14.8,5.06c10.08,2.89,20.32,5.28,30.55,7.68l15.37,3.49Q114.74,195.21,122.45,196.89Z"/><g class="cls-14"><path class="cls-15" d="M20.34,110.27c12.59,2.55,93.86,14.11,106.41,15.89a7,7,0,0,0,3.19-.29c10.63-3.56,72.77-24.37,98.7-33.58A7,7,0,0,1,237.9,100c-.06.44-.13.89-.2,1.33a7,7,0,0,1-4.23,5.41l-90.36,37.73a7,7,0,0,1-3.94.43l-42.84-7.68a7.16,7.16,0,0,0-6.67,2.48A12.79,12.79,0,0,1,85,142.72c-2.06.95-5.76,2.42-8.81,3.6a20,20,0,0,1-4.9,1.87l0,0h0a18.28,18.28,0,0,1-8.85-.06c-11.46-3.07-15.59-8.23-16.62-18.3,0-.26,0-.53-.08-.8a7,7,0,0,0-5.48-6.2l-16.92-3.72a7,7,0,0,1-5.43-6l-.06-.4A2.18,2.18,0,0,1,20.34,110.27Z"/></g><path class="cls-16" d="M19.39,108.39c-.78.48-.93,1.69,1.19,2.21,18.1,4.42,107.88,23.11,111.52,22.89,4.06-.26,108.12-43.1,107.39-45.26S134.87,65,124.25,64.9C114.08,64.77,36.48,97.93,19.39,108.39ZM128.3,122.94s-85.72-16.09-86.17-18.71S115,70.67,123.36,70.78s65.83,10.35,88.18,16.83Z"/><path class="cls-12" d="M20.56,107.7c.82-.34,6.38,3.87,5.22,4.18s-7.35,2-7.91,1.48c-.33-.3,0-2,.37-3.49C18.48,108.82,19.91,108,20.56,107.7Z"/><path class="cls-17" d="M126.84,132.5C99.43,127.39,72,122.25,44.79,115.91c-6.38-1.5-12.92-2.85-19.1-5.08-.31-.11-.53.4-.22.53a99.85,99.85,0,0,0,15.76,4.69c8.26,2,16.57,3.78,24.9,5.49q24.81,5.1,49.76,9.5c3.61.65,7.22,1.26,10.84,1.88.27.05.39-.37.11-.42Z"/><path class="cls-17" d="M126.82,132.6c-26.9-5.16-53.84-10.43-80.46-16.87-6.27-1.52-12.7-2.93-18.75-5.21a5.45,5.45,0,0,0-1.88.74c12.7,5.22,28.86,7,42.21,9.85q24.09,5.17,48.3,9.74,5.25,1,10.52,2c.13,0,.19-.19.06-.22Z"/><path class="cls-17" d="M119.35,66c-15.06,5.26-29.93,11-44.69,17-8.71,3.57-17.39,7.2-26,11-9.16,4-18.88,7.73-27.44,12.91-.33.2-.12.78.27.64,9-3.44,17.61-8.19,26.39-12.16,9.13-4.12,18.3-8.14,27.56-12,14.54-6,29.19-11.84,44-17.15.18-.06.1-.34-.08-.28Z"/><polygon class="cls-17" points="28.76 111.27 24.82 108.44 20.56 107.69 24.09 109.94 25.22 111.6 28.76 111.27"/><polyline class="cls-18" points="180.26 28.3 92.1 13.06 63.54 18.24 31.6 54.2 22.37 73.66 32.88 93.4 119.56 108.42 142.16 50.64 173.75 31.83"/><path class="cls-19" d="M147.47,47.48,144.4,49.3q-8.07.15-16.16,0C116.68,49,105.14,48.2,93.66,47s-22.92-3-34.24-5.29q-7-1.41-14-3.06l.37-.43q6.84,1.47,13.74,2.71c11.35,2,22.76,3.66,34.22,4.77s23,1.72,34.49,1.94Q137.88,47.77,147.47,47.48Z"/><path class="cls-20" d="M155.63,42.62l-1.93,1.15a75.76,75.76,0,0,0-13.56-4.61,156.31,156.31,0,0,0-24-3.63c-8.11-.71-16.28-1.16-24.42-2.07a118,118,0,0,1-24.13-4.92,73.75,73.75,0,0,1-9.58-4L59,23.33a77.57,77.57,0,0,0,9,3.64,116.19,116.19,0,0,0,23.8,4.75c8.08.87,16.23,1.28,24.39,2A150.33,150.33,0,0,1,140.6,37.3,76.78,76.78,0,0,1,155.63,42.62Z"/><path class="cls-21" d="M135.78,66.94l-.65,1.68-.21-.06c-2.11-.61-4.19-1.27-6.28-1.92s-4.18-1.22-6.26-1.84-4.2-1.14-6.31-1.67l-3.17-.79c-1.06-.25-2.13-.46-3.19-.69A209,209,0,0,0,57.8,57a214.06,214.06,0,0,0-28.92,2.95l.3-.63,2.49-.46a196.77,196.77,0,0,1,26.08-3A204.22,204.22,0,0,1,110.06,60c1.07.23,2.15.43,3.22.68l3.2.78c2.13.52,4.26,1,6.36,1.66s4.24,1.18,6.32,1.83,4.17,1.29,6.26,1.88Z"/><path class="cls-22" d="M179.86,28.23l.35.1-2.12,1.14q-4.11-1.11-8.3-1.95a124,124,0,0,0-15-2c-2.52-.19-5-.28-7.57-.32s-5.06,0-7.6.07a97.94,97.94,0,0,1-15.3-.57,53,53,0,0,1-14.65-4.46c-4.51-2-8.86-4.31-13.31-6.39l-.44-.21c-2.3-1.06-4.64-2-7-2.91a50.46,50.46,0,0,0-7.35-2A50.07,50.07,0,0,1,89,10.49c2.41.8,4.78,1.73,7.11,2.75l1.89.84c4,1.82,8,3.76,12,5.46a53.88,53.88,0,0,0,14.49,4.12,98,98,0,0,0,15.14.36c2.53-.08,5.08-.16,7.63-.17s5.11.07,7.66.23l1.57.11A124.67,124.67,0,0,1,170.09,26C173.37,26.57,176.64,27.33,179.86,28.23Z"/><path class="cls-23" d="M130,81.78l-.72,1.86q-10.11-.89-20.13-2.57c-5.65-.14-11.3-.24-17-.54s-11.35-.68-17-1.08c-11.32-.77-22.62-1.7-33.94-1.64-5.43,0-10.84.24-16.24.75l-.56-1c5.58-.61,11.18-.91,16.79-1C52.59,76.33,64,77,75.28,77.79c5.66.38,11.31.75,17,1s11.33.34,17,.46h.13Q119.63,81,130,81.78Z"/><polygon class="cls-9" points="165.14 36.96 156.09 42.35 54.17 28.78 59.42 22.88 165.14 36.96"/><polygon class="cls-9" points="125.58 93.04 123.12 99.31 29.38 86.83 25.6 79.73 125.58 93.04"/><polygon class="cls-24" points="136.45 65.23 134 71.5 29.97 57.65 31.6 54.2 33.93 51.58 136.45 65.23"/><path class="cls-25" d="M119.56,108.42l-86.67-15L22.37,73.66,31.6,54.19,63.54,18.24,92.1,13.06l11.85,2C91.12,19.19,76.22,26.84,66.77,36.42c-18.22,18.47-16.14,28.36-10.34,38,2.29,3.8,41.33,9.71,70.22,15.9Z"/><path class="cls-26" d="M31,15.75C44.05,5,60.81-1.44,77.59.27l24.46,6.24C85.29,4.66,66.36,10,53.05,20.32S25.78,54.73,24.59,77.71l3,15.89s54.1,11.58,81.73,17.57l-3-15.88c1.19-23,15.16-47,28.47-57.39s32.26-18.1,49-16.26c26.17,4,35.3,9,35.3,9h0a42.1,42.1,0,0,0-8.18-1.74c-16.76-1.85-35.48,4.74-48.78,15.11s-29.66,34.37-30.85,57.36c3.24,18.72,9.16,39.65,9.16,39.65C94.31,131,8.61,111.31,8.61,111.31S3.24,91.62,0,72.89C1.18,49.91,16.4,27.83,31,15.75Z"/><path class="cls-27" d="M27.33,93.71l-1-7,4.47-1.11,4.86,3.86S79.24,98.09,108,104.15l1.32,7C81.66,105.18,27.33,93.71,27.33,93.71Z"/><path class="cls-6" d="M60.67,26.75C47.36,37.12,34.62,56.23,33.44,79.22l2.17,10.26-8.28,4.23-2.74-16c1.19-23,15.16-47,28.46-57.39s32.24-15.66,49-13.81l3.85,8.94L96.36,14C83.22,15.84,70.74,18.9,60.67,26.75Z"/><path class="cls-2" d="M162.14,44c13.3-10.37,32-17,48.78-15.11,25.3,2.78,40.46,28,40.46,28s-.32,25.79-2.09,36.27a4.43,4.43,0,0,1-2.6,3.31c-16.5,7.23-104.42,45-106.24,44.51s-5.92-20.93-9.16-39.65C132.48,78.4,148.83,54.4,162.14,44Z"/><path class="cls-3" d="M174.6,55.65c9.28-6.72,23.47-11.35,35.18-10.14,17.65,1.81,27.07,17.06,27.07,17.06s-.22,18-1.54,24.43C229.56,89.48,153,121,153,121s-4.35-14.86-3-24.76C152.26,80.47,165.32,62.37,174.6,55.65Z"/><path class="cls-4" d="M225.68,50.65l-.61.37-1.67,1q-13.62,8.19-27.76,15.47c-9.4,4.87-19,9.34-28.73,13.54q-7.22,3.09-14.5,6c.12-.36.25-.71.39-1.07q6.9-2.79,13.71-5.82c9.67-4.27,19.17-8.9,28.55-13.76q12.81-6.66,25.21-14.08a81.79,81.79,0,0,0-18.8,3.79,185.48,185.48,0,0,0-20.55,8.13c-7.41,3.34-14.77,6.93-22.31,10.08.39-.67.81-1.32,1.23-2,6.88-3,13.65-6.28,20.49-9.4A178.75,178.75,0,0,1,201,54.66a81.63,81.63,0,0,1,22-3.93l1.51,0Z"/><path class="cls-4" d="M184.37,53.52a54.35,54.35,0,0,1-11.22,3.25c.36-.3.71-.57,1.06-.83a54.66,54.66,0,0,0,9.86-3.14,118.91,118.91,0,0,0,12.23-6.32l.36-.21c.92-.18,1.85-.34,2.77-.47-.9.49-1.79,1-2.67,1.49A120.56,120.56,0,0,1,184.37,53.52Z"/><path class="cls-4" d="M235.91,61.23a0,0,0,0,0,0,0A31.31,31.31,0,0,1,227,69.17c-6.82,4.17-14.5,6.34-22,8.34-3.79,1-7.54,2-11.29,3.07l-5.58,1.73c-1.86.58-3.69,1.25-5.54,1.87q-11,3.87-21.69,8.7-5.6,2.57-11.06,5.42c0-.38.05-.77.1-1.14q5.19-2.76,10.5-5.27c7.09-3.32,14.34-6.32,21.73-8.92,1.85-.63,3.69-1.31,5.56-1.9l5.61-1.76c3.76-1.08,7.54-2.13,11.31-3.12,7.51-2,15.06-4.21,21.62-8.25a30.51,30.51,0,0,0,8.48-7.59L235,60C235.34,60.46,235.65,60.88,235.91,61.23Z"/><path class="cls-4" d="M236.55,72.81c0,.54-.05,1.09-.07,1.64q-2.19,1.2-4.39,2.37c-3.34,1.8-6.72,3.49-10.09,5.22l-5.06,2.59q-2.55,1.26-5.13,2.47c-6.84,3.21-13.82,6.18-20.9,8.84-4.63,2.38-9.25,4.78-13.95,7s-9.41,4.51-14.14,6.71c-3.78,1.78-7.56,3.54-11.33,5.33-.09-.39-.17-.79-.25-1.21,3.67-1.79,7.35-3.53,11-5.27,4.72-2.22,9.43-4.45,14.1-6.75s9.29-4.71,13.92-7.1l0,0h0q10.57-4,20.82-8.9c3.41-1.6,6.78-3.32,10.15-5s6.75-3.39,10.08-5.18C233.13,74.65,234.84,73.74,236.55,72.81Z"/><path class="cls-5" d="M236.85,62.58s0,2.66-.15,6.3h0l-86.84,35.19a43,43,0,0,1-.05-5.78c0-.38.05-.77.1-1.14,0-.09,0-.18,0-.26l86.44-35C236.69,62.32,236.85,62.58,236.85,62.58Z"/><path class="cls-5" d="M222.09,49.28,158.23,74.9l.38-.63c.39-.67.81-1.32,1.23-2A80.59,80.59,0,0,1,165.16,65l47.45-19.05A33.71,33.71,0,0,1,222.09,49.28Z"/><path class="cls-1" d="M229.15,85c1.32-6.44,1.54-24.43,1.54-24.43a41.33,41.33,0,0,0-17.34-14.53c15.35,3.31,23.5,16.49,23.5,16.49s0,18.15-1.34,24.58C229.76,89.63,224.31,87.12,229.15,85Z"/><path class="cls-6" d="M151.92,117c17.23-7.11,72.39-29.85,77.23-31.93l6.36,2.11C229.76,89.63,153,121,153,121S152.49,119.45,151.92,117Z"/><g class="cls-14"><path class="cls-15" d="M208.92,58.94c-11.7-1.21-25.17.23-34.45,7S152.53,90.18,150,105.82a40.56,40.56,0,0,1,0-9.54c2.24-15.81,15.3-33.91,24.58-40.63s23.47-11.35,35.18-10.14c17.65,1.81,27.07,17.06,27.07,17.06s0,7.15-.27,12.54l-6.08-6.92C225.53,65.17,218.27,59.9,208.92,58.94Z"/></g><path class="cls-13" d="M235.52,87.19l-41.16,17.23q-10.28,4.33-20.6,8.55c-6.93,2.7-13.81,5.53-20.79,8.11a0,0,0,0,1-.05,0,0,0,0,0,1,0-.06c6.79-3.06,13.67-5.88,20.5-8.83s13.76-5.64,20.66-8.39l41.39-16.67a0,0,0,0,1,.06,0S235.54,87.18,235.52,87.19Z"/><path class="cls-13" d="M88.61,6.49C78.75,8.3,69,11.24,60.39,16.3a62.74,62.74,0,0,0-11.9,9,66.14,66.14,0,0,0-9.44,11.52c-.71,1-1.37,2.09-2,3.16s-1.29,2.13-1.85,3.24C34.06,45.4,33,47.68,32.09,50a147.44,147.44,0,0,0-4.9,14.18c-.69,2.4-1.32,4.83-1.79,7.28a16.55,16.55,0,0,0-.21,7.34c.69,5,1.12,10,2.14,14.92-1.22-4.87-1.87-9.88-2.77-14.81-.11-.63-.24-1.19-.35-1.87a11.47,11.47,0,0,1-.06-1.94,31.86,31.86,0,0,1,.44-3.79c.42-2.5,1-5,1.63-7.4A125.06,125.06,0,0,1,31,49.55c.93-2.35,2-4.66,3.1-6.93.56-1.14,1.21-2.24,1.86-3.32s1.29-2.17,2-3.22A62.75,62.75,0,0,1,59.89,15.44a74.16,74.16,0,0,1,14-5.87A108.54,108.54,0,0,1,88.61,6.49Z"/><path class="cls-13" d="M83.57,105.63c-19-2.74-37.21-8.5-56-12.23-.22,0-.31.33-.09.38,18.55,4.7,37,9.91,56,12.35.32,0,.37-.45,0-.5Z"/><path class="cls-13" d="M197,29a72.08,72.08,0,0,0-16.45,4.8,77.93,77.93,0,0,0-14.93,8.26,68.82,68.82,0,0,0-22.53,25,150.68,150.68,0,0,0-6.7,15.75c-1,2.69-1.94,5.38-2.77,8.11a49.37,49.37,0,0,0-1.92,8.28,8,8,0,0,0,0,2l.4,2.11.77,4.24,1.52,8.48c1,5.65,2,11.31,3.15,16.94-1.36-5.59-2.49-11.22-3.67-16.84l-1.74-8.43-.88-4.22-.44-2.1a8.81,8.81,0,0,1-.08-2.28,49.87,49.87,0,0,1,1.71-8.54c.76-2.78,1.61-5.54,2.56-8.26a153.5,153.5,0,0,1,6.62-16,57.45,57.45,0,0,1,4.43-7.52c.83-1.19,1.69-2.36,2.64-3.47s1.87-2.23,2.87-3.28a77.17,77.17,0,0,1,13.24-11.24C174.49,34.5,185.55,30.08,197,29Z"/><path class="cls-28" d="M65.8,101.8c7.64,1.64,24.88,2,24.88,2l1.86,3.77,0,22.85-30.74-6.95Z"/><path class="cls-6" d="M49.19,84.57c11.56,2.43,29.26,5.19,40.88,7.3.17,2.8.49,7.06.61,11.93l-4.22,2.11s-.3,13.8-.2,16.37.14,7.08-3.46,10.58A19.79,19.79,0,0,1,81,134c-3.83,2-13.53,6-13.53,6S52.45,128.05,51,118C49.67,108.41,48.68,93.13,49.19,84.57Z"/><path class="cls-1" d="M39.42,89.13C51,91.56,68.68,94.32,80.3,96.43c.38,6.24,1.49,19.69-.4,31.08-1.49,9-12.18,14.79-21.32,12.72-11.57-2.62-15.9-7.62-17.32-17.64C39.9,113,38.91,97.69,39.42,89.13Z"/><path class="cls-29" d="M50.56,110.74a8.43,8.43,0,0,1,4.17-12c3.64-1.58,10.14.07,12.1,3,2.47,3.68,3.28,9.78-.78,12.6a9.93,9.93,0,0,1-3.53,1.53c1.17,4,5.85,14.63,3.69,16.34S51.39,132,50.5,129.76s2.52-9.44,4.69-14.13C52.71,114.66,51.63,112.59,50.56,110.74Z"/><path class="cls-6" d="M50.17,110.75c-1.86-4.37-.54-9.81,4.56-12A8.57,8.57,0,0,1,58,98.13c-4.23,2.49-5,7.53-3.12,11.46a11.49,11.49,0,0,0,4.63,4.89c-2.17,4.69-5.57,12-4.69,14.14.63,1.55,7.19,3,11.72,3.07a1.29,1.29,0,0,1-.35.51C64,133.92,51.39,132,50.5,129.76s2.52-9.44,4.69-14.13A9.14,9.14,0,0,1,50.17,110.75Z"/><path class="cls-6" d="M59.53,114.48c-2.17,4.69-5.57,12-4.69,14.14.63,1.55,7.37,2.34,11.89,2.44a1.79,1.79,0,0,1-.52,1.14C64,133.92,51.39,132,50.5,129.76s2.52-9.44,4.69-14.13Z"/><path class="cls-30" d="M49.14,84.58c1,.18,40.63,6.42,41,7s-8.21,4.59-9.81,4.87-40.45-6.87-40.83-7.3S48.1,84.39,49.14,84.58Z"/><path class="cls-13" d="M80.29,96.47c-6.89-.72-13.74-1.8-20.57-2.9-3.42-.55-6.85-1.08-10.24-1.8a90.19,90.19,0,0,1-10.07-2.6s0,0,0,0,0,0,0,0l10.21,1.83c3.41.6,6.8,1.32,10.2,2l10.21,1.84c3.41.6,6.82,1.19,10.25,1.65a.05.05,0,0,1,0,.05S80.32,96.47,80.29,96.47Z"/><path class="cls-13" d="M60.35,98.32A8.61,8.61,0,0,1,66,100.86a12.06,12.06,0,0,1,3.1,5.5,8.13,8.13,0,0,1-1.19,6.25,9.09,9.09,0,0,1-5.24,3.64l.25-.56a49,49,0,0,1,3.53,10.12,14.53,14.53,0,0,1,.35,5.38,1.47,1.47,0,0,1-.7,1.21,3.24,3.24,0,0,1-1.3.41,16,16,0,0,1-2.68,0,16.62,16.62,0,0,0,2.65-.2c.84-.15,1.76-.58,1.69-1.5a15.52,15.52,0,0,0-.57-5.19,57.34,57.34,0,0,0-3.7-9.91.4.4,0,0,1,.19-.54l.06,0a8.93,8.93,0,0,0,4.78-3.33,7.56,7.56,0,0,0,1.2-5.64,11.61,11.61,0,0,0-2.74-5.35A8.51,8.51,0,0,0,60.35,98.32Z"/><path class="cls-31" d="M82.76,95.54c.42.29-1.8,4.15-2.28,3.66s-2.88-3-2.66-3S82.15,95.12,82.76,95.54Z"/><path class="cls-13" d="M40.5,89.44c0,.09-.06.39-.08.66l-.07.85-.07,1.72-.09,3.46c0,2.31,0,4.62,0,6.94,0,4.62.16,9.25.41,13.87-.46-4.61-.8-9.23-1.06-13.85-.12-2.32-.23-4.63-.3-7l-.07-3.48V90.91l0-.89A4.78,4.78,0,0,1,39.29,89Z"/></g></g></g></svg>