<svg xmlns="http://www.w3.org/2000/svg" xmlns:xlink="http://www.w3.org/1999/xlink" viewBox="0 0 32.69 17.76"><defs><style>.cls-1{fill:url(#linear-gradient);}.cls-2{fill:url(#linear-gradient-2);}.cls-3{fill:url(#linear-gradient-3);}.cls-4{fill:url(#linear-gradient-4);}.cls-5{fill:url(#linear-gradient-5);}.cls-6{fill:url(#linear-gradient-6);}.cls-7{fill:url(#linear-gradient-7);}.cls-8{fill:url(#linear-gradient-8);}.cls-9{fill:#fc0;}.cls-10{fill:url(#linear-gradient-9);}.cls-11{fill:url(#linear-gradient-10);}.cls-12{fill:#172135;}.cls-13,.cls-15,.cls-16{fill-opacity:0.5;}.cls-13{fill:url(#radial-gradient);}.cls-14{fill:#fff;}.cls-15{fill:url(#radial-gradient-2);}.cls-16{fill:url(#radial-gradient-3);}</style><linearGradient id="linear-gradient" x1="-1481.37" y1="-312.93" x2="-1475.24" y2="-312.93" gradientTransform="matrix(-0.96, 0.27, -0.27, -0.96, -1498.55, 113.55)" gradientUnits="userSpaceOnUse"><stop offset="0" stop-color="#e88f00"/><stop offset="1" stop-color="#cc7d00"/></linearGradient><linearGradient id="linear-gradient-2" x1="-1474.08" y1="-308.59" x2="-1474.08" y2="-313.03" gradientTransform="translate(-1470.19 -296.84) rotate(180)" gradientUnits="userSpaceOnUse"><stop offset="0" stop-color="#fc0"/><stop offset="1" stop-color="#e88f00"/></linearGradient><linearGradient id="linear-gradient-3" x1="-1477.48" y1="-311.51" x2="-1477.48" y2="-313.48" gradientTransform="matrix(-0.96, 0.27, -0.27, -0.96, -1498.55, 113.55)" xlink:href="#linear-gradient-2"/><linearGradient id="linear-gradient-4" x1="-1477.34" y1="-312.44" x2="-1477.34" y2="-314.66" gradientTransform="matrix(-0.96, 0.27, -0.27, -0.96, -1498.55, 113.55)" xlink:href="#linear-gradient-2"/><linearGradient id="linear-gradient-5" x1="-1484.56" y1="-308.18" x2="-1484.56" y2="-310.26" gradientTransform="matrix(-0.96, 0.27, -0.27, -0.96, -1498.55, 113.55)" xlink:href="#linear-gradient-2"/><linearGradient id="linear-gradient-6" x1="-1498.29" y1="-309.04" x2="-1488.82" y2="-309.04" gradientTransform="translate(-1499.06 117.58) rotate(164.15)" xlink:href="#linear-gradient-2"/><linearGradient id="linear-gradient-7" x1="-1495.93" y1="-309.04" x2="-1486.46" y2="-309.04" gradientTransform="translate(-1499.07 117.59) rotate(164.15)" xlink:href="#linear-gradient-2"/><linearGradient id="linear-gradient-8" x1="-1502.51" y1="-309.93" x2="-1491.85" y2="-309.93" gradientTransform="matrix(-0.96, 0.27, -0.27, -0.96, -1498.55, 113.55)" xlink:href="#linear-gradient-2"/><linearGradient id="linear-gradient-9" x1="-1511.56" y1="-309.92" x2="-1490.91" y2="-309.92" gradientTransform="matrix(-0.96, 0.27, -0.27, -0.96, -1498.55, 113.55)" xlink:href="#linear-gradient-2"/><linearGradient id="linear-gradient-10" x1="-1515.12" y1="-309.91" x2="-1504.39" y2="-309.91" gradientTransform="matrix(-0.96, 0.27, -0.27, -0.96, -1498.55, 113.55)" xlink:href="#linear-gradient-2"/><radialGradient id="radial-gradient" cx="-3715.42" cy="1967.69" r="2.55" gradientTransform="translate(3478.76 2380.7) rotate(62.67)" gradientUnits="userSpaceOnUse"><stop offset="0" stop-color="#fff" stop-opacity="0.5"/><stop offset="0.22" stop-color="#fff" stop-opacity="0.37"/><stop offset="0.33" stop-color="#fff" stop-opacity="0.3"/><stop offset="0.49" stop-color="#fff" stop-opacity="0.25"/><stop offset="0.8" stop-color="#fff" stop-opacity="0.1"/><stop offset="1" stop-color="#fff" stop-opacity="0"/></radialGradient><radialGradient id="radial-gradient-2" cx="-5150.32" cy="1407.68" r="1.22" gradientTransform="matrix(0.95, 0.3, -0.3, 0.95, 5326.65, 224.32)" xlink:href="#radial-gradient"/><radialGradient id="radial-gradient-3" cx="-5677.6" cy="420.42" r="1.42" gradientTransform="matrix(0.97, -0.24, 0.24, 0.97, 5430.29, -1766.49)" xlink:href="#radial-gradient"/></defs><title>Bonus Key</title><g id="Layer_2" data-name="Layer 2"><g id="Layer_1-2" data-name="Layer 1"><g id="Layer_2-2" data-name="Layer 2"><g id="_1" data-name=" 1"><path class="cls-1" d="M2.39,15.67,1.78,13.5,6,12.29l.61,2.17h0a.49.49,0,0,1,.41.4h0c.08.27,0,.52-.14.56h0l.25.92a.15.15,0,0,1-.1.2h0l-.94.27a.44.44,0,0,0-.55-.32h0a.46.46,0,0,0-.32.57h0l-1,.27A.46.46,0,0,0,3.66,17a.44.44,0,0,0-.33.47.13.13,0,0,1-.1.13l-.31.09-.31-1.08c.15,0,.22-.29.14-.56h0C2.73,15.8,2.55,15.62,2.39,15.67Z"/><rect class="cls-2" x="1.68" y="12.96" width="4.43" height="2.25" transform="translate(-3.7 1.6) rotate(-15.85)"/><path class="cls-3" d="M2.49,16.16h0c-.08-.27-.26-.44-.42-.4l4.26-1.21a.49.49,0,0,1,.41.4h0c.08.27,0,.52-.14.56L2.35,16.72C2.5,16.68,2.56,16.43,2.49,16.16Z"/><path class="cls-4" d="M6.6,15.51l.27.94a.16.16,0,0,1-.1.19l-.64.18a.2.2,0,0,1-.21-.09.48.48,0,0,0-.51-.19.47.47,0,0,0-.32.57l-.93.27a.45.45,0,0,0-.56-.32h0a.46.46,0,0,0-.33.46.15.15,0,0,1-.11.14l-.31.09a.2.2,0,0,1-.24-.13l-.25-.9Z"/><path class="cls-5" d="M1.1,13.87,20.82,8.28l-.51-1.8L.59,12.08a.81.81,0,0,0-.56,1H0l.06.22a.81.81,0,0,0,1,.57Z"/><path class="cls-6" d="M22.83,8.27l-2.32.66a1.47,1.47,0,0,1-1.82-1h0a1.47,1.47,0,0,1,1-1.82h0L22,5.44h0l.81,2.84Z"/><path class="cls-7" d="M23.27,7.48l-2.95.84a.83.83,0,0,1-1-.57h0a.82.82,0,0,1,.57-1h0l2.95-.84h0l.45,1.59Z"/><circle class="cls-8" cx="26.56" cy="5.68" r="5.49"/><circle class="cls-9" cx="27.2" cy="5.49" r="5.49"/><circle class="cls-10" cx="27.2" cy="5.49" r="4.24"/><path class="cls-11" d="M30.94,4.43a4.22,4.22,0,0,0-5.07-3H26a4.24,4.24,0,1,1,2.63,8.06l-.31.09h-.16A4.23,4.23,0,0,0,30.94,4.43Z"/><path class="cls-12" d="M27.6,5.38a1.08,1.08,0,1,0,.75-1.33h0A1.08,1.08,0,0,0,27.6,5.38Z"/><circle class="cls-13" cx="12.15" cy="3.24" r="2.55"/><path class="cls-14" d="M11.94,4.65s-.34-.87.67-2.77A4.65,4.65,0,0,1,11.94,4.65Z"/><path class="cls-14" d="M13.66,3.6s-.88.34-2.78-.67A4.68,4.68,0,0,1,13.66,3.6Z"/><circle class="cls-15" cx="11.54" cy="16.52" r="1.22"/><path class="cls-14" d="M11.94,17.07s-.41-.18-.71-1.16A2.23,2.23,0,0,1,11.94,17.07Z"/><path class="cls-14" d="M12.17,16.13s-.18.42-1.16.72A2.25,2.25,0,0,1,12.17,16.13Z"/><circle class="cls-16" cx="20.8" cy="11.92" r="1.42"/><path class="cls-14" d="M21.54,12.22s-.52.07-1.41-.72A2.55,2.55,0,0,1,21.54,12.22Z"/><path class="cls-14" d="M21.2,11.15s.07.52-.73,1.42A2.66,2.66,0,0,1,21.2,11.15Z"/></g></g></g></g></svg>