<svg xmlns="http://www.w3.org/2000/svg" viewBox="0 0 218.09 362.95"><defs><style>.cls-1{opacity:0.3;}.cls-2{fill:#fff;}</style></defs><title>Quest ICons v2</title><g id="Layer_2" data-name="Layer 2"><g id="quest"><g id="quest-2" data-name="quest" class="cls-1"><path class="cls-2" d="M85.69,12.92l-10,1.16a.53.53,0,0,0-.46.58l.55,4.6-.38.36-1.33,1.46-.93.11a.51.51,0,0,0-.45.56v0l.79,6.66a.52.52,0,0,0,.57.46h0l10-1.19,3.34-.39a.52.52,0,0,0,.45-.58l-.73-6.19A3.87,3.87,0,0,0,90,16.33h0a3.87,3.87,0,0,0-4.3-3.41Zm-9.36,2.21A2.87,2.87,0,0,1,79,17.63h0v.06a6.61,6.61,0,0,0-2.23.87l-.41-3.43Zm7.09,11.59-9,1.06-.66-5.63,9-1.06Zm-7.73-5.85.47-.5a5.67,5.67,0,0,1,7.2-.85l.58.37Zm11.06,5.45-2.29.27L83.79,21l2.3-.27ZM86,19.65h-.4l-1.63-1.06A6.75,6.75,0,0,0,80,17.51h0a3.83,3.83,0,0,0-1.56-2.67L85.29,14Zm3-3.21a2.84,2.84,0,0,1-2,3l-.65-5.53a2.83,2.83,0,0,1,2.62,2.49Z"/><path class="cls-2" d="M78.6,24.4a.53.53,0,0,0,.46-.58L79,23.26a.52.52,0,0,0-.57-.46h0a.53.53,0,0,0-.46.58l.07.56a.52.52,0,0,0,.57.46Z"/><path class="cls-2" d="M72.87,18.6h.31v.32a.53.53,0,0,0,.58.46.54.54,0,0,0,.46-.59v-.31h.32a.53.53,0,0,0,.58-.46.52.52,0,0,0-.46-.57.54.54,0,0,0-.25,0H74.1v-.31a.52.52,0,0,0-.67-.3.53.53,0,0,0-.33.42v.32h-.31a.52.52,0,0,0-.3.67.53.53,0,0,0,.42.33Z"/><path class="cls-2" d="M77.74,12.38h.31v.31a.52.52,0,0,0,.57.46h0a.55.55,0,0,0,.46-.58v-.32h.31a.53.53,0,0,0,.46-.58.5.5,0,0,0-.55-.46H79v-.32a.52.52,0,0,0-.67-.3A.53.53,0,0,0,78,11v.32h-.32a.53.53,0,0,0-.58.46.52.52,0,0,0,.46.57.54.54,0,0,0,.25,0Z"/><path class="cls-2" d="M82.77,16.86h.32v.31a.52.52,0,0,0,1,.14.57.57,0,0,0,0-.26v-.31h.31a.52.52,0,0,0,.14-1,.57.57,0,0,0-.26,0H84v-.32a.52.52,0,0,0-1,.13v.31h-.32a.52.52,0,0,0-.3.67.53.53,0,0,0,.42.33Z"/><path class="cls-2" d="M24.08,336.78l-10,1.19a.55.55,0,0,0-.46.58l.55,4.6-.37.36-1.34,1.42-.92.11a.52.52,0,0,0-.46.57h0l.79,6.66a.52.52,0,0,0,.57.46h0l10-1.19,3.33-.39a.53.53,0,0,0,.46-.58l-.74-6.19a3.87,3.87,0,0,0,2.88-4.21h0A3.87,3.87,0,0,0,24.08,336.78ZM14.73,339a2.85,2.85,0,0,1,2.62,2.5h0v.06a6.61,6.61,0,0,0-2.23.87L14.71,339Zm7.14,11.59-9,1.06L12.2,346l9-1.06Zm-7.74-5.85.48-.5a5.63,5.63,0,0,1,7.19-.85l.58.37Zm11.07,5.45-2.3.27-.67-5.63,2.3-.27Zm-.79-6.67-.41.05-1.63-1.06a6.7,6.7,0,0,0-3.92-1.08h0a3.83,3.83,0,0,0-1.58-2.72l6.85-.82Zm3-3.21a2.84,2.84,0,0,1-2,3l-.66-5.53a2.85,2.85,0,0,1,2.63,2.49Z"/><path class="cls-2" d="M17,348.26a.52.52,0,0,0,.46-.57h0l-.06-.56a.54.54,0,0,0-.59-.46.52.52,0,0,0-.45.58l.06.56A.53.53,0,0,0,17,348.26Z"/><path class="cls-2" d="M11.23,342.46h.32v.32a.52.52,0,0,0,1,.14.57.57,0,0,0,0-.26v-.32h.31a.52.52,0,0,0,.14-1,.57.57,0,0,0-.26,0h-.32V341a.53.53,0,0,0-.58-.46.52.52,0,0,0-.46.57h0v.32h-.32a.53.53,0,0,0-.46.58.52.52,0,0,0,.61.41Z"/><path class="cls-2" d="M16.13,336.24h.32v.31a.52.52,0,1,0,1-.12v-.32h.32a.55.55,0,0,0,.46-.58.53.53,0,0,0-.59-.46h-.31v-.32a.52.52,0,0,0-1-.14.57.57,0,0,0,0,.26v.32h-.31a.52.52,0,0,0-.46.57h0A.52.52,0,0,0,16.13,336.24Z"/><path class="cls-2" d="M21.17,340.72h.32V341a.52.52,0,0,0,1-.13v-.31h.32a.51.51,0,0,0,.45-.56v0a.52.52,0,0,0-.57-.46h-.32v-.32a.51.51,0,0,0-.56-.45h0a.53.53,0,0,0-.46.58v.31H21a.52.52,0,0,0-.3.67.53.53,0,0,0,.42.33Z"/><path class="cls-2" d="M41.05,69.43l-8.72,1a.46.46,0,0,0-.4.51l.47,4c-.11.1-.22.2-.32.31l-1.16,1.23-.81.1a.46.46,0,0,0-.4.5l.69,5.82a.46.46,0,0,0,.51.4l8.72-1L42.54,82a.46.46,0,0,0,.4-.51l-.64-5.37a3.39,3.39,0,0,0,2.51-3.68h0A3.39,3.39,0,0,0,41.05,69.43Zm-8.18,1.93a2.49,2.49,0,0,1,2.29,2.18h0v0a5.62,5.62,0,0,0-1.94.76l-.36-3Zm6.18,10.1-7.82.93-.56-4.91,7.82-.93Zm-6.74-5.09.41-.44A4.94,4.94,0,0,1,39,75.18l.5.33ZM42,81.08l-2,.23L39.4,76.4l2-.23Zm-.69-5.82h-.36l-1.42-.92a5.82,5.82,0,0,0-3.42-.94v-.05a3.37,3.37,0,0,0-1.36-2.27l6-.71Zm2.58-2.76a2.48,2.48,0,0,1-1.71,2.65l-.58-4.82A2.47,2.47,0,0,1,43.87,72.5Z"/><path class="cls-2" d="M34.87,79.44a.45.45,0,0,0,.39-.5h0v-.48a.46.46,0,0,0-.48-.44.45.45,0,0,0-.44.47.22.22,0,0,0,0,.08l.06.48A.46.46,0,0,0,34.87,79.44Z"/><path class="cls-2" d="M29.87,74.38h.28v.28a.45.45,0,0,0,.5.39h0a.46.46,0,0,0,.4-.5v-.28h.28a.45.45,0,0,0,.4-.49h0a.46.46,0,0,0-.51-.4H31l-.09-.29a.44.44,0,0,0-.48-.39h0a.45.45,0,0,0-.4.49h0v.28H29.7a.46.46,0,0,0-.4.51.44.44,0,0,0,.46.42Z"/><path class="cls-2" d="M34.11,69h.28v.27a.46.46,0,0,0,.51.4.45.45,0,0,0,.4-.49h0v-.28h.28a.46.46,0,0,0,.4-.51.45.45,0,0,0-.5-.39H35.2v-.28a.46.46,0,0,0-.5-.4.47.47,0,0,0-.4.51v.28H34a.45.45,0,1,0,.1.9Z"/><path class="cls-2" d="M38.51,72.86h.27v.28a.46.46,0,0,0,.54.36.47.47,0,0,0,.37-.47v-.28H40a.46.46,0,0,0,.4-.5.47.47,0,0,0-.51-.4h-.27v-.28a.46.46,0,0,0-.54-.36.47.47,0,0,0-.37.47V72H38.4a.44.44,0,0,0-.39.5A.45.45,0,0,0,38.51,72.86Z"/><path class="cls-2" d="M124.93,136.32l-8.72,1a.46.46,0,0,0-.4.51l.47,4c-.11.1-.22.2-.32.31l-1.17,1.23-.8.1a.46.46,0,0,0-.4.51l.69,5.81a.46.46,0,0,0,.51.4l8.72-1,2.91-.34a.45.45,0,0,0,.39-.5h0l-.64-5.39a3.39,3.39,0,0,0,2.52-3.67h0A3.39,3.39,0,0,0,124.93,136.32Zm-8.16,1.93a2.49,2.49,0,0,1,2.29,2.18h0v0a6.13,6.13,0,0,0-1.94.76l-.36-3Zm6.18,10.1-7.82.93-.58-4.91,7.82-.93Zm-6.74-5.09.41-.44a4.92,4.92,0,0,1,6.25-.74l.5.32Zm9.65,4.75-2,.24-.58-4.91,2-.24Zm-.69-5.82h-.36l-1.42-.93a5.84,5.84,0,0,0-3.42-.94h0a3.41,3.41,0,0,0-1.35-2.33l6-.71Zm2.61-2.8a2.47,2.47,0,0,1-1.72,2.65l-.57-4.82a2.47,2.47,0,0,1,2.29,2.17Z"/><path class="cls-2" d="M118.74,146.33a.46.46,0,0,0,.4-.51l0-.48a.46.46,0,0,0-.54-.36.47.47,0,0,0-.37.47l.06.48a.45.45,0,0,0,.49.4Z"/><path class="cls-2" d="M113.72,141.28H114v.28a.45.45,0,0,0,.49.4h0a.46.46,0,0,0,.4-.51v-.27h.28a.44.44,0,0,0,.39-.48v0a.45.45,0,0,0-.49-.4h-.29V140a.46.46,0,0,0-.51-.4.44.44,0,0,0-.39.48v.3h-.28a.46.46,0,0,0-.36.54.47.47,0,0,0,.47.37Z"/><path class="cls-2" d="M118,135.85h.28v.28a.44.44,0,0,0,.5.39.45.45,0,0,0,.4-.5v-.28h.28a.44.44,0,0,0,.39-.48v0a.45.45,0,0,0-.49-.4h-.29v-.27a.46.46,0,0,0-.51-.4.44.44,0,0,0-.39.5V135h-.28a.45.45,0,0,0-.39.5h0a.44.44,0,0,0,.48.39Z"/><path class="cls-2" d="M122.39,139.76h.27V140a.46.46,0,0,0,.54.36.47.47,0,0,0,.37-.47v-.27h.27a.45.45,0,0,0,.4-.49h0a.46.46,0,0,0-.51-.4h-.27v-.27a.46.46,0,0,0-.51-.4.45.45,0,0,0-.4.49h0v.28h-.27a.46.46,0,0,0,0,.92h.08Z"/><path class="cls-2" d="M49,177.45l-8.73,1a.44.44,0,0,0-.39.48v0l.47,4c-.11.1-.22.21-.32.32l-1.2,1.28-.8.1a.45.45,0,0,0-.4.49h0l.69,5.82a.46.46,0,0,0,.51.4l8.72-1,2.9-.35a.45.45,0,0,0,.4-.49h0l-.61-5.44a3.38,3.38,0,0,0,2.51-3.68h0A3.37,3.37,0,0,0,49,177.45Zm-8.17,1.93a2.47,2.47,0,0,1,2.29,2.17h0a0,0,0,0,0,0,0,6,6,0,0,0-2,.77l-.35-3Zm6.18,10.1-7.82.93-.58-4.91,7.81-.93Zm-6.74-5.1.41-.43A4.93,4.93,0,0,1,47,183.2l.51.33ZM50,189.13l-2,.24-.58-4.91,2-.24Zm-.69-5.81h-.35l-1.42-.92a5.84,5.84,0,0,0-3.42-.94h0a3.35,3.35,0,0,0-1.35-2.38l6-.71Zm2.62-2.8a2.47,2.47,0,0,1-1.72,2.65l-.57-4.83a2.48,2.48,0,0,1,2.28,2.18Z"/><path class="cls-2" d="M42.87,187.46a.46.46,0,0,0,.4-.51l-.06-.48a.45.45,0,0,0-.49-.4h0a.45.45,0,0,0-.4.49h0l.06.49a.45.45,0,0,0,.49.4Z"/><path class="cls-2" d="M37.87,182.4h.28v.27a.45.45,0,1,0,.9-.1h0v-.28h.27a.46.46,0,0,0,.4-.51.45.45,0,0,0-.49-.4h-.29v-.28a.46.46,0,0,0-.51-.4.45.45,0,0,0-.39.5h0v.27h-.28a.45.45,0,0,0,.11.9Z"/><path class="cls-2" d="M42.1,177h.28v.27a.45.45,0,0,0,.49.4h0a.46.46,0,0,0,.4-.5v-.28h.27a.46.46,0,0,0,.4-.51.45.45,0,0,0-.49-.4h-.29v-.28a.46.46,0,0,0-.51-.4.45.45,0,0,0-.39.5h0v.27H42a.45.45,0,0,0,.11.9h0Z"/><path class="cls-2" d="M46.5,180.88h.27v.27a.46.46,0,0,0,.51.4.45.45,0,0,0,.4-.49h0v-.28H48a.46.46,0,0,0,0-.92h-.35v-.28a.45.45,0,0,0-.49-.4h0a.46.46,0,0,0-.4.51V180h-.27a.45.45,0,0,0-.4.49h0A.46.46,0,0,0,46.5,180.88Z"/><path class="cls-2" d="M60,240.71l-8.72,1a.45.45,0,0,0-.4.49h0l.47,4-.32.32-1.18,1.28-.81.1a.45.45,0,0,0-.4.49h0l.69,5.82a.46.46,0,0,0,.51.4l8.72-1,2.91-.34a.46.46,0,0,0,.4-.51l-.64-5.39a3.39,3.39,0,0,0,2.51-3.68h0a3.39,3.39,0,0,0-3.74-3Zm-8.15,1.93a2.48,2.48,0,0,1,2.29,2.17h0v.05a5.62,5.62,0,0,0-1.94.76l-.36-3Zm6.18,10.1-7.82.93-.58-4.91,7.82-.93Zm-6.74-5.1.41-.43a4.94,4.94,0,0,1,6.28-.75l.5.33ZM61,252.39l-2,.24-.58-4.91,2-.24Zm-.69-5.81h-.36l-1.42-.92a5.82,5.82,0,0,0-3.42-.94v-.05a3.36,3.36,0,0,0-1.36-2.33l6-.71Zm2.6-2.8a2.48,2.48,0,0,1-1.71,2.65l-.58-4.83A2.49,2.49,0,0,1,62.87,243.78Z"/><path class="cls-2" d="M53.87,250.72a.45.45,0,0,0,.39-.5h0v-.48a.46.46,0,0,0-.51-.4.45.45,0,0,0-.4.49h0l.06.49A.46.46,0,0,0,53.87,250.72Z"/><path class="cls-2" d="M48.81,245.66h.28v.27a.46.46,0,0,0,.91-.1v-.28h.28a.46.46,0,0,0,.4-.51.47.47,0,0,0-.51-.4H49.9v-.28a.45.45,0,0,0-.49-.4h0a.46.46,0,0,0-.4.51v.27h-.27a.45.45,0,0,0,.1.9Z"/><path class="cls-2" d="M53.08,240.24h.28v.27a.46.46,0,0,0,.91-.1v-.28h.28a.46.46,0,0,0,0-.92h-.35v-.28a.45.45,0,0,0-.49-.4h0a.46.46,0,0,0-.4.51v.27H53a.45.45,0,1,0,.1.9h0Z"/><path class="cls-2" d="M57.48,244.14h.27v.27a.46.46,0,0,0,.51.4.45.45,0,0,0,.4-.49h0V244h.27a.47.47,0,0,0,.44-.51.46.46,0,0,0-.5-.44H58.6v-.28a.46.46,0,0,0-.48-.44.45.45,0,0,0-.44.47.22.22,0,0,0,0,.08v.27h-.27a.45.45,0,0,0-.4.49h0a.47.47,0,0,0,.46.46Z"/><path class="cls-2" d="M116.43,190.38l-8.72,1a.45.45,0,0,0-.4.49h0l.48,4a3.26,3.26,0,0,0-.33.31l-1.16,1.23-.81.1a.45.45,0,0,0-.4.49h0l.69,5.82a.46.46,0,0,0,.51.4l8.72-1,2.91-.34a.46.46,0,0,0,.4-.51l-.64-5.39a3.39,3.39,0,0,0,2.51-3.68h0A3.38,3.38,0,0,0,116.43,190.38Zm-8.16,1.93a2.48,2.48,0,0,1,2.29,2.18h0v0a5.62,5.62,0,0,0-1.94.76l-.36-3Zm6.18,10.1-7.82.93-.58-4.91,7.82-.93Zm-6.74-5.1.41-.43a5,5,0,0,1,6.28-.75l.5.33Zm9.65,4.76-2,.23-.59-4.91,2-.23Zm-.69-5.82h-.36l-1.42-.92a5.82,5.82,0,0,0-3.42-.94h0a3.36,3.36,0,0,0-1.36-2.33l6-.71Zm2.61-2.8a2.47,2.47,0,0,1-1.71,2.63l-.58-4.83a2.49,2.49,0,0,1,2.29,2.18Z"/><path class="cls-2" d="M110.25,200.39a.46.46,0,0,0,.4-.51l-.06-.48a.46.46,0,0,0-.51-.4.45.45,0,0,0-.4.49h0l.06.49A.46.46,0,0,0,110.25,200.39Z"/><path class="cls-2" d="M105.22,195.33h.28v.28a.46.46,0,0,0,.54.36.47.47,0,0,0,.37-.47v-.28h.28a.46.46,0,0,0,.4-.51.45.45,0,0,0-.5-.39h-.28V194a.44.44,0,0,0-.48-.39h0a.45.45,0,0,0-.4.49h0v.28h-.27a.45.45,0,1,0,.1.9h0Z"/><path class="cls-2" d="M109.49,189.91h.28v.27a.46.46,0,0,0,.51.4.45.45,0,0,0,.4-.49h0v-.28H111a.46.46,0,0,0,.4-.51.45.45,0,0,0-.5-.39h-.28v-.28a.45.45,0,0,0-.49-.4h0a.46.46,0,0,0-.4.51V189h-.27a.45.45,0,1,0,.1.9h0Z"/><path class="cls-2" d="M113.87,193.81h.27v.28a.44.44,0,0,0,.5.39.45.45,0,0,0,.4-.5v-.28h.27a.46.46,0,0,0,.4-.51.45.45,0,0,0-.5-.39h-.28v-.28a.45.45,0,0,0-.5-.39h0a.45.45,0,0,0-.4.49h0v.28h-.28a.45.45,0,0,0-.4.49h0a.46.46,0,0,0,.51.4Z"/><path class="cls-2" d="M187.73,194.86l-8.72,1a.46.46,0,0,0-.4.51l.47,4c-.11.1-.22.21-.32.32l-1.16,1.23-.81.09a.46.46,0,0,0-.4.51l.69,5.81a.46.46,0,0,0,.51.4l8.72-1,2.91-.35a.46.46,0,0,0,.4-.51l-.64-5.39a3.4,3.4,0,0,0,2.51-3.67h0A3.38,3.38,0,0,0,187.73,194.86Zm-8.16,1.92a2.49,2.49,0,0,1,2.29,2.18h0v0a5.93,5.93,0,0,0-1.94.77l-.36-3Zm6.18,10.1-7.82.93-.58-4.91,7.82-.93ZM179,201.79l.41-.44a4.93,4.93,0,0,1,6.28-.74l.5.32Zm9.65,4.75-2,.24-.58-4.91,2-.24Zm-.69-5.82-.36.05-1.42-.93a5.82,5.82,0,0,0-3.42-.94h0a3.38,3.38,0,0,0-1.36-2.33l6-.71Zm2.61-2.8a2.49,2.49,0,0,1-1.71,2.66l-.58-4.83a2.47,2.47,0,0,1,2.29,2.17Z"/><path class="cls-2" d="M181.55,204.86a.44.44,0,0,0,.39-.5v-.49a.46.46,0,0,0-.92,0,.22.22,0,0,0,0,.08l.06.48A.46.46,0,0,0,181.55,204.86Z"/><path class="cls-2" d="M176.52,199.81h.28v.28a.46.46,0,0,0,.51.4.47.47,0,0,0,.4-.51v-.27H178a.45.45,0,0,0,.4-.49h0a.46.46,0,0,0-.51-.4h-.27v-.27a.45.45,0,0,0-.49-.4h0a.46.46,0,0,0-.4.5v.28h-.27a.45.45,0,0,0,.08.89Z"/><path class="cls-2" d="M180.79,194.39h.28v.28a.46.46,0,0,0,.54.36.47.47,0,0,0,.37-.47v-.27h.28a.45.45,0,0,0,.4-.49h0a.46.46,0,0,0-.51-.4h-.27v-.27a.45.45,0,1,0-.9.1v.28h-.27a.45.45,0,0,0,.08.89Z"/><path class="cls-2" d="M185.19,198.29h.27v.28a.46.46,0,0,0,.54.36.47.47,0,0,0,.37-.47v-.27h.27a.45.45,0,0,0,.4-.49h0a.46.46,0,0,0-.51-.4h-.27V197a.46.46,0,0,0-.51-.4.45.45,0,0,0-.4.49h0v.28h-.27a.46.46,0,0,0,0,.92h.08Z"/><path class="cls-2" d="M136.77,269.72l-8.72,1a.45.45,0,0,0-.4.49h0l.48,4-.33.32-1.16,1.23-.81.1a.45.45,0,0,0-.4.49h0l.69,5.82a.45.45,0,0,0,.5.39h0l8.72-1,2.91-.35a.45.45,0,0,0,.4-.49h0l-.64-5.4a3.37,3.37,0,0,0,2.51-3.67h0A3.38,3.38,0,0,0,136.77,269.72Zm-8.16,1.93a2.46,2.46,0,0,1,2.29,2.17h0v.05a5.93,5.93,0,0,0-1.94.77l-.36-3Zm6.18,10.1-7.81.93-.59-4.91,7.82-.93Zm-6.74-5.1.41-.43a5,5,0,0,1,6.28-.75l.5.33Zm9.65,4.75-2,.24-.59-4.91,2-.24Zm-.69-5.81h-.35l-1.42-.92a5.87,5.87,0,0,0-3.43-.94v-.05a3.36,3.36,0,0,0-1.36-2.33l6-.71Zm2.62-2.8a2.48,2.48,0,0,1-1.72,2.65l-.57-4.83a2.49,2.49,0,0,1,2.29,2.18Z"/><path class="cls-2" d="M130.59,279.72a.45.45,0,0,0,.4-.49h0l-.06-.49a.45.45,0,0,0-.5-.39h0a.44.44,0,0,0-.39.48v0l.05.49a.45.45,0,0,0,.5.39Z"/><path class="cls-2" d="M125.57,274.67h.27v.27a.46.46,0,0,0,.48.44.45.45,0,0,0,.44-.47.22.22,0,0,0,0-.08v-.27H127a.46.46,0,0,0,0-.92h-.35v-.28a.46.46,0,0,0-.48-.44.45.45,0,0,0-.44.47.22.22,0,0,0,0,.08v.27h-.27a.45.45,0,0,0-.4.49h0a.46.46,0,0,0,.5.42Z"/><path class="cls-2" d="M129.87,269.25h.27v.27a.46.46,0,0,0,.48.44.45.45,0,0,0,.44-.47.22.22,0,0,0,0-.08v-.27h.27a.46.46,0,0,0,0-.92h-.35V268a.46.46,0,0,0-.54-.36.47.47,0,0,0-.37.47v.27h-.27a.46.46,0,0,0-.36.54A.47.47,0,0,0,129.87,269.25Z"/><path class="cls-2" d="M134.23,273.15h.28v.27a.45.45,0,0,0,.49.4h0a.46.46,0,0,0,.4-.51V273h.27a.46.46,0,0,0,.4-.51.45.45,0,0,0-.49-.4h-.29v-.28a.46.46,0,0,0-.51-.4.45.45,0,0,0-.39.5h0v.27h-.28a.45.45,0,0,0-.4.49h0a.46.46,0,0,0,.5.42Z"/><path class="cls-2" d="M98.87,319.8l-8.72,1a.45.45,0,0,0-.4.49h0l.48,4-.33.32-1.16,1.23-.81.1a.45.45,0,0,0-.4.49h0l.7,5.82a.45.45,0,0,0,.49.4h0l8.72-1,2.91-.34a.46.46,0,0,0,.4-.51l-.64-5.39a3.39,3.39,0,0,0,2.51-3.68h0A3.39,3.39,0,0,0,98.87,319.8Zm-8.16,1.93A2.46,2.46,0,0,1,93,323.9h0a5.93,5.93,0,0,0-1.94.77l-.36-3Zm6.18,10.1-7.81.93-.59-4.91,7.82-.93Zm-6.74-5.1.41-.43a5,5,0,0,1,6.28-.75l.5.33Zm9.72,4.75-2,.24-.59-4.91,2-.24Zm-.69-5.81h-.35l-1.42-.92a5.87,5.87,0,0,0-3.43-.94h0a3.36,3.36,0,0,0-1.36-2.33l6-.71Zm2.62-2.8a2.48,2.48,0,0,1-1.72,2.65l-.57-4.83A2.49,2.49,0,0,1,101.8,322.87Z"/><path class="cls-2" d="M92.72,329.81a.46.46,0,0,0,.4-.51l-.06-.48a.46.46,0,0,0-.51-.4.44.44,0,0,0-.39.48v.51a.46.46,0,0,0,.51.41Z"/><path class="cls-2" d="M87.7,324.75H88V325a.46.46,0,0,0,.51.4.45.45,0,0,0,.4-.49h0v-.28h.27a.46.46,0,0,0,.4-.51.47.47,0,0,0-.51-.4h-.27v-.28a.46.46,0,0,0-.48-.44.45.45,0,0,0-.44.47.22.22,0,0,0,0,.08v.27h-.27a.45.45,0,0,0-.4.49h0a.46.46,0,0,0,.5.42Z"/><path class="cls-2" d="M92,319.33h.27v.27a.46.46,0,0,0,.51.4.45.45,0,0,0,.4-.49h0v-.28h.27a.46.46,0,0,0,.36-.54.47.47,0,0,0-.47-.37H93V318a.46.46,0,0,0-.48-.44.45.45,0,0,0-.44.47.22.22,0,0,0,0,.08v.27h-.27a.45.45,0,0,0-.4.49h0a.46.46,0,0,0,.5.42Z"/><path class="cls-2" d="M96.36,323.23h.28v.27a.45.45,0,1,0,.9-.1h0v-.28h.27a.46.46,0,0,0,.4-.51.45.45,0,0,0-.49-.4h-.29v-.28a.46.46,0,0,0-.51-.4.45.45,0,0,0-.39.5h0v.27h-.28a.44.44,0,0,0-.39.5.45.45,0,0,0,.5.4Z"/><path class="cls-2" d="M74.49,349.08a9.79,9.79,0,0,1-5.37-1.7l.52-.8a8.77,8.77,0,0,0,4.85,1.54h.28v1Zm5.91-1.91-.51-.81a16.56,16.56,0,0,0,1.9-1.43c.82-.7,1.62-1.45,2.38-2.21l.68.67c-.78.78-1.6,1.55-2.44,2.27a18.68,18.68,0,0,1-2,1.53Zm-15.53-3.83c-.31-.4-.56-.74-.75-1l-.26-.36A25.43,25.43,0,0,0,61,339.22l.63-.72a26.53,26.53,0,0,1,3,2.9l.27.38.73,1Zm-23.38-6-.56-.78a39.68,39.68,0,0,1,4.94-3l.43.85a41.13,41.13,0,0,0-4.81,3Zm15-1.57a17.77,17.77,0,0,0-5-2.36l.23-.92A18.33,18.33,0,0,1,57,335ZM123,332.38v-1c1.49-.05,2.89-1,4.16-2.92l.79.53c-1.47,2.23-3.12,3.35-4.94,3.42Zm-5.33-2.58c-1.69-1.22-3.24-2.24-4.75-3.13l.49-.83c1.53.91,3.11,2,4.82,3.19Zm12.71-6.07-.91-.31a43.34,43.34,0,0,0,1.41-5.49l.94.19a47.52,47.52,0,0,1-1.43,5.64Zm2.34-11.32-1-.11c.22-1.84.4-3.75.52-5.69l.95.06c-.06,2-.24,3.92-.46,5.77Zm.73-11.5h-1V299.8c0-1.52,0-3.07-.09-4.6h.95c.06,1.54.09,3.1.09,4.64Zm26.23-30a10.43,10.43,0,0,1-3.85-.83l.35-.89a8,8,0,0,0,5.3.51l.26.91a7.12,7.12,0,0,1-2.05.31Zm-9-3.53a13.09,13.09,0,0,1-1.23-1,10.21,10.21,0,0,0-3.3-2.24l.32-.9a11.5,11.5,0,0,1,3.62,2.42,11.48,11.48,0,0,0,1.14.95Zm15.77-.43-.79-.53a14.5,14.5,0,0,0,2-5.14l.94.2a15.69,15.69,0,0,1-2.17,5.48Zm1.79-11.27v-.09c0-1.49-.11-2.5-.11-2.51s-.2-1.21-.39-3.07l1-.09c.19,1.82.39,3,.39,3a23.32,23.32,0,0,1,.12,2.64Zm.15-11.45h-1V244a40.86,40.86,0,0,1,.35-5.53l.94.14a40.52,40.52,0,0,0-.33,5.39Zm-94.14-.32-.55-.77a40.85,40.85,0,0,0,4.37-3.61l.66.69a39.85,39.85,0,0,1-4.5,3.7ZM40.08,239.8A37.4,37.4,0,0,1,38,234.38l.87-.3a35.38,35.38,0,0,0,2,5.28Zm42.55-3.92-.76-.57c.34-.47.68-1,1-1.44a19.06,19.06,0,0,0,1.7-3.45l.9.34a20.44,20.44,0,0,1-1.8,3.63c-.35.52-.7,1-1.06,1.5Zm87.59-2.69-.86-.4a7.94,7.94,0,0,1,4.1-4.29l.4.87a6.78,6.78,0,0,0-.84.45,7.56,7.56,0,0,0-2.82,3.38Zm33.47-3a14,14,0,0,1-1.71-.07l.08-1a19.65,19.65,0,0,0,5.57-.34l.2.93a20,20,0,0,1-4.16.4Zm-7.41-1c-1.92-.32-3.83-.58-5.66-.78l.1-.95c1.85.2,3.77.47,5.72.79Zm-159.62-.36c-.33-1.79-.61-3.72-.81-5.73l.95-.1c.2,2,.47,3.89.8,5.65Zm142.6-.68-.1-1A43.23,43.23,0,0,1,185,227v1a43.66,43.66,0,0,0-5.72,0Zm34-.73-.58-.76a10.6,10.6,0,0,0,3.31-4.3l.87.37a11.45,11.45,0,0,1-3.65,4.62Zm-63.39-1.57a22.82,22.82,0,0,1-5.71-1.28l.33-.9A22.27,22.27,0,0,0,150,224.9Zm5.84-.39-.2-.93a20.71,20.71,0,0,0,5.23-2l.45.84a21.3,21.3,0,0,1-5.52,2.09Zm-68.62-.27-.93-.21c.37-1.65.69-3.49,1-5.61l1,.13c-.4,2.15-.74,4-1.11,5.69Zm51.78-3.11-.35-.18c-.87-.42-2-1.65-3.72-4.1l.78-.55c1,1.41,2.44,3.35,3.36,3.79l.37.19Zm27.08-2-.62-.73a37.77,37.77,0,0,0,4-4l.72.63A37.79,37.79,0,0,1,166,220.08Zm-130.54-2.8c-.08-1.78-.13-3.67-.14-5.76h1c0,2.09.06,4,.14,5.73Zm182.66-.35h-.95v-2.71a21.65,21.65,0,0,0-.32-2.89l.94-.17a23.14,23.14,0,0,1,.34,3v1.37c0,.44,0,.94,0,1.4ZM88.78,213.79l-1-.11.1-.84c.2-1.78.39-3.47.6-4.88l1,.14c-.21,1.4-.4,3.07-.6,4.85Zm42.8-.74c-1.08-1.63-2.13-3.22-3.2-4.76l.78-.54c1.08,1.55,2.14,3.14,3.22,4.77Zm83.45-7a16.78,16.78,0,0,0-3.34-4.42l.66-.7a18.13,18.13,0,0,1,3.53,4.68Zm-178.78-.27h-1v-2.12c0-1.64,0-2.74-.09-3.57l1-.08c.07.86.1,2,.1,3.65C36.26,204.31,36.25,205.08,36.25,205.78Zm54.92-2.92-.83-.49a16.68,16.68,0,0,1,3.79-4.49l.6.74A15.77,15.77,0,0,0,91.17,202.86Zm116-4.51a27.39,27.39,0,0,0-5.24-2l.25-.92a27.31,27.31,0,0,1,5.44,2.13ZM61.35,171.91l-.48-.83c1.68-.93,3.41-1.82,5.14-2.62l.41.86C64.71,170.08,63,171,61.35,171.91Zm10.33-4.83-.34-.9c1.79-.68,3.63-1.3,5.47-1.85l.27.92C75.27,165.81,73.45,166.43,71.68,167.08Zm10.92-3.26-.21-.93c1.87-.42,3.78-.77,5.68-1l.14.95c-1.88.29-3.77.64-5.61,1.05ZM93.9,162l-.15-.95c1.94-.29,3.84-.61,5.65-1l.18.94c-1.83.41-3.71.73-5.71,1Zm11.32-2.12L105,159c2-.45,3.81-.93,5.54-1.43l.26.92c-1.74.52-3.62,1-5.59,1.46Zm4.45-31.31c-1.72-.37-3.56-.7-5.62-1l.14-1c2.08.3,3.94.63,5.68,1Zm-11.3-1.66q-2.84-.28-5.72-.49l.07-1c1.93.15,3.85.31,5.74.49ZM86.92,126c-1.93-.14-3.85-.29-5.73-.46l.08-1c1.88.17,3.79.31,5.72.45Zm-11.46-1.07a56.25,56.25,0,0,1-5.71-1L70,123c1.69.35,3.53.65,5.63.93Zm-11.3-2.49a22.53,22.53,0,0,1-5.22-2.6l.54-.79a21.62,21.62,0,0,0,5,2.49Zm-9.29-6.56c-.8-.61-2.44-1.9-4.45-3.72l.65-.71c2,1.79,3.59,3.07,4.38,3.66Zm-8.59-7.8a49.55,49.55,0,0,1-3.71-4.46l.77-.56A52.34,52.34,0,0,0,47,107.43Zm-6.76-9.41a20.19,20.19,0,0,1-1.87-5.55l.94-.16a19.11,19.11,0,0,0,1.79,5.29Zm48.55-6.59a10.79,10.79,0,0,1-4.89-3.35l.69-.65a9.69,9.69,0,0,0,4.44,3.06ZM94,91.65l-.37-.88a14.88,14.88,0,0,0,4.55-3.14l.67.68A15.52,15.52,0,0,1,94,91.63ZM79.32,84.53C78,83.23,76.56,82,75.07,80.76l.59-.74A56.16,56.16,0,0,1,80,83.85Zm22.31-1.45-.92-.25a11.72,11.72,0,0,0,.4-3,11.22,11.22,0,0,0-.27-2.45l.93-.21a11.86,11.86,0,0,1,.3,2.66A12.3,12.3,0,0,1,101.63,83.08ZM70.46,77.4c-1.91-1.25-3.61-2.23-4.89-3l.47-.83c1.29.72,3,1.71,4.94,3ZM54.87,73.34l-.23-.93a23.18,23.18,0,0,1,5.43-.71h.38v1h-.36A22.4,22.4,0,0,0,54.87,73.34Zm43.57-1a43.28,43.28,0,0,0-3.56-4.42l.71-.64a42.74,42.74,0,0,1,3.63,4.52Zm-7.56-8.5c-1.33-1.27-2.76-2.56-4.24-3.84l.62-.72c1.5,1.28,2.94,2.59,4.28,3.87ZM82.41,56a35.79,35.79,0,0,1-3.31-4.79l.83-.47a35.33,35.33,0,0,0,3.22,4.65ZM76.87,45.84a17.67,17.67,0,0,1-.35-1.76l1-.12a12,12,0,0,0,.33,1.67Z"/><path class="cls-2" d="M77.48,44l-1,.11a10.11,10.11,0,0,1,.18-3.38l.93.22A9.18,9.18,0,0,0,77.48,44Z"/><path class="cls-2" d="M81.19,39.08v-1a18.62,18.62,0,0,0,5.74-.91l.3.91A19.41,19.41,0,0,1,81.19,39.08Zm-6-.94a19.15,19.15,0,0,1-5.44-2.77l.56-.78a18.32,18.32,0,0,0,5.17,2.64ZM92.7,35.35l-.57-.78a18.63,18.63,0,0,0,4.11-4.11L97,31a19.47,19.47,0,0,1-4.35,4.34ZM65.38,31.08a19.6,19.6,0,0,1-2.79-5.44l.91-.3a18.75,18.75,0,0,0,2.65,5.17ZM99.75,25.6l-.91-.29a18.61,18.61,0,0,0,.9-5.74l.65-.05h.31A19.32,19.32,0,0,1,99.75,25.6Zm-38.12-6h0a19.69,19.69,0,0,1,.94-6l.91.3a18.7,18.7,0,0,0-.89,5.7Zm37.24-5.84A18.58,18.58,0,0,0,96.21,8.6L97,8a19.44,19.44,0,0,1,2.8,5.43ZM66.11,8.68l-.77-.6a19.62,19.62,0,0,1,4.3-4.33l.57.78A18.55,18.55,0,0,0,66.11,8.68ZM92,4.5a18.52,18.52,0,0,0-5.17-2.62L87.16,1a19,19,0,0,1,5.46,2.76ZM75.38,1.91,75.08,1a19.76,19.76,0,0,1,6-1V1A18.72,18.72,0,0,0,75.38,1.91Z"/><path class="cls-2" d="M21.44,363l-.09-.95A18.5,18.5,0,0,0,27,360.54l.38.88A19.82,19.82,0,0,1,21.44,363Zm-6.1-.36a19.5,19.5,0,0,1-5.69-2.23l.49-.83a18.5,18.5,0,0,0,5.4,2.13Zm17.16-4.51-.64-.71a18.74,18.74,0,0,0,3.69-4.49l.83.49A19.74,19.74,0,0,1,32.5,358.08Zm-27.57-1.6a19.41,19.41,0,0,1-3.29-5.14l.87-.38a19.07,19.07,0,0,0,3.14,4.89Zm33.68-8.76-.93-.21a18.49,18.49,0,0,0,.43-4,13.93,13.93,0,0,0-.08-1.82l.94-.16v.09c.06.62.09,1.26.09,1.89a18.59,18.59,0,0,1-.45,4.21ZM.1,345.42h0c-.06-.63-.09-1.27-.09-1.9a19.41,19.41,0,0,1,.45-4.16l.93.2a19.2,19.2,0,0,0-.42,4,12.2,12.2,0,0,0,.09,1.81Zm36.45-9.34a18.34,18.34,0,0,0-3.14-4.88l.71-.64a19.2,19.2,0,0,1,3.3,5.14Zm-33-1.91-.82-.48A19.8,19.8,0,0,1,6.6,329l.64.72a18.55,18.55,0,0,0-3.74,4.4Zm25.32-6.7a18.53,18.53,0,0,0-5.41-2.12l.2-.93a19.2,19.2,0,0,1,5.69,2.22Zm-16.84-1-.38-.88a19.16,19.16,0,0,1,6-1.51l.1.95a18.64,18.64,0,0,0-5.63,1.46Z"/><path class="cls-2" d="M37.06,91a15.34,15.34,0,0,1-4.61-.7l.28-.91a14.72,14.72,0,0,0,5.71.59l.1,1A14.62,14.62,0,0,1,37.06,91Zm7.37-1.82L44,88.36a15,15,0,0,0,4.47-3.63l.73.61A15.56,15.56,0,0,1,44.43,89.2ZM27.06,87.41a15.54,15.54,0,0,1-3.88-4.76l.85-.44a14.81,14.81,0,0,0,3.64,4.46Zm25-7.46-.92-.29a14.59,14.59,0,0,0,.73-4.35,10.47,10.47,0,0,0-.06-1.37l.47-.11h.48c0,.48.07,1,.07,1.46A16,16,0,0,1,52.11,80ZM21.43,76.78h0a14.46,14.46,0,0,1-.07-1.47,15.59,15.59,0,0,1,.69-4.6L23,71a14.72,14.72,0,0,0-.64,4.32,10.7,10.7,0,0,0,.06,1.38Zm28.69-8.42a14.94,14.94,0,0,0-3.64-4.46l.61-.73A15.73,15.73,0,0,1,51,67.91ZM25.7,65.89,25,65.28a15.89,15.89,0,0,1,4.75-3.88l.45.85A14.67,14.67,0,0,0,25.7,65.89Zm15.71-4.72a14.79,14.79,0,0,0-5.69-.58l-.09-.51V59.6a15.73,15.73,0,0,1,6.06.62Z"/><path class="cls-2" d="M46.42,199l-.08-1a14.82,14.82,0,0,0,5.52-1.6l.44.84h0A15.54,15.54,0,0,1,46.42,199Zm-6.09-.68a15.48,15.48,0,0,1-5.38-3l.62-.73a14.8,14.8,0,0,0,5,2.77Zm16.77-4.86-.73-.61a14.68,14.68,0,0,0,2.77-5.05l.92.29A15.62,15.62,0,0,1,57.1,193.44Zm-26-2.87h0a15.71,15.71,0,0,1-1.71-5.87l1-.09a14.36,14.36,0,0,0,1.6,5.51Zm28.69-8.49a14.88,14.88,0,0,0-1.61-5.53l.83-.49h0A15.75,15.75,0,0,1,60.72,182ZM31,178.89l-.91-.29A15.79,15.79,0,0,1,33,173.22l.74.62a14.93,14.93,0,0,0-2.77,5ZM54.56,172a14.87,14.87,0,0,0-5.06-2.76l.29-.91a15.45,15.45,0,0,1,5.38,2.94Zm-16.28-1.79-.47-.83h0a15.78,15.78,0,0,1,5.86-1.7l.08,1a14.93,14.93,0,0,0-5.47,1.51Z"/><path class="cls-2" d="M122.31,157.86l-.08-1a14.64,14.64,0,0,0,5.52-1.6l.44.85h0A15.76,15.76,0,0,1,122.31,157.86Zm-6.09-.68a15.64,15.64,0,0,1-5.38-3l.62-.74a14.65,14.65,0,0,0,5,2.78ZM133,152.32l-.73-.62a14.8,14.8,0,0,0,2.77-5l.92.29a15.88,15.88,0,0,1-3,5.33Zm-26-2.88h0a15.71,15.71,0,0,1-1.71-5.87l1-.08a14.59,14.59,0,0,0,1.6,5.51Zm28.67-8.51a14.88,14.88,0,0,0-1.61-5.53l.41-.26.42-.22-.42.22.44-.18a15.39,15.39,0,0,1,1.71,5.89Zm-28.79-3.19-.91-.28a15.55,15.55,0,0,1,2.91-5.38l.74.61A14.61,14.61,0,0,0,106.87,137.74Zm23.57-6.87a14.68,14.68,0,0,0-5-2.77l.28-.91a15.88,15.88,0,0,1,5.38,2.94Zm-16.27-1.79-.47-.83h0a15.61,15.61,0,0,1,5.86-1.71l.08.95A14.75,14.75,0,0,0,114.17,129.08Z"/><path class="cls-2" d="M56.06,262.31a15.53,15.53,0,0,1-6-1.17l.38-.92a14.75,14.75,0,0,0,5.58,1.09l0,.69,0,.31Zm6.06-1.21-.38-.93A14.35,14.35,0,0,0,66.5,257l.71.71A15.82,15.82,0,0,1,62.12,261.1ZM45,257.75a15.51,15.51,0,0,1-3.43-5.08l.92-.39A14.65,14.65,0,0,0,45.67,257Zm25.64-5.19-.92-.38a14.72,14.72,0,0,0,1.1-5.61l1,0v0A15.72,15.72,0,0,1,70.61,252.56Zm-30.3-5.9v-.09a15.67,15.67,0,0,1,1.16-5.94l.92.38a14.68,14.68,0,0,0-1.08,5.56Zm29.35-5.75a14.51,14.51,0,0,0-3.2-4.77l.71-.71a15.79,15.79,0,0,1,3.42,5.09Zm-24.1-4.69-.71-.71a15.6,15.6,0,0,1,5.07-3.44l.39.92A14.62,14.62,0,0,0,45.56,236.22ZM61.69,233a14.7,14.7,0,0,0-5.64-1.12h-.11v-1h.12a15.69,15.69,0,0,1,6,1.19Z"/><path class="cls-2" d="M112.73,212v-1a14.73,14.73,0,0,0,5.62-1.21l.41.86h-.07A15.52,15.52,0,0,1,112.73,212Zm-6-1.1a15.58,15.58,0,0,1-5.15-3.31l.66-.69a14.82,14.82,0,0,0,4.84,3.11Zm17.07-3.69-.68-.66a14.66,14.66,0,0,0,3.11-4.84l.89.35a15.56,15.56,0,0,1-3.36,5.15Zm-25.72-4.67.44-.19-.45.17a15.69,15.69,0,0,1-1.29-6h1a14.46,14.46,0,0,0,1.09,5.59Zm29.19-6.5a14.74,14.74,0,0,0-1.21-5.63l.85-.43V190a15.65,15.65,0,0,1,1.29,6Zm-28.51-5.17-.89-.35a15.65,15.65,0,0,1,3.32-5.16l.68.66a14.81,14.81,0,0,0-3.15,4.85Zm24-5.23a14.44,14.44,0,0,0-4.85-3.11l.35-.89a15.62,15.62,0,0,1,5.16,3.31Zm-16.11-2.92-.4-.87a15.7,15.7,0,0,1,6-1.3v1a14.65,14.65,0,0,0-5.65,1.17Z"/><path class="cls-2" d="M184,216.44v-1a14.48,14.48,0,0,0,5.62-1.22l.2.44.24.4H190A15.42,15.42,0,0,1,184,216.44Zm-6-1.1a15.59,15.59,0,0,1-5.16-3.26l.67-.69a14.66,14.66,0,0,0,4.84,3.11Zm17.07-3.68-.68-.67a14.4,14.4,0,0,0,3.11-4.84l.89.35a15.65,15.65,0,0,1-3.36,5.16ZM169.39,207v-.07a15.49,15.49,0,0,1-1.28-6h1a14.59,14.59,0,0,0,1.21,5.6Zm29.18-6.53a14.48,14.48,0,0,0-1.22-5.62l.86-.43v0a15.66,15.66,0,0,1,1.3,6Zm-28.51-5.17-.89-.35a15.65,15.65,0,0,1,3.32-5.16l.68.66a14.71,14.71,0,0,0-3.15,4.85Zm24-5.23a14.42,14.42,0,0,0-4.85-3.1l.35-.89a15.69,15.69,0,0,1,5.16,3.3Zm-16.19-2.91-.42-.86h0a15.44,15.44,0,0,1,6-1.29v1A15,15,0,0,0,177.87,187.17Z"/><path class="cls-2" d="M130.72,291.16h-.08a15.56,15.56,0,0,1-5.77-2l.48-.82a14.81,14.81,0,0,0,5.43,1.87Zm6.07-.36-.24-.93a14.56,14.56,0,0,0,5.17-2.52l.58.76a15.55,15.55,0,0,1-5.51,2.69Zm-16.51-5.72a15.53,15.53,0,0,1-2.68-5.51l.92-.24a14.93,14.93,0,0,0,2.53,5.17Zm26.1-1.56-.83-.48a14.68,14.68,0,0,0,1.88-5.45l1,.07v.07a15.79,15.79,0,0,1-2.05,5.8Zm-28.2-10-1-.11a15.72,15.72,0,0,1,2-5.79l.83.48a14.38,14.38,0,0,0-1.88,5.46Zm28.9-1.76a14.93,14.93,0,0,0-2.53-5.17l.76-.58a15.74,15.74,0,0,1,2.7,5.51Zm-23.22-8-.57-.76a15.59,15.59,0,0,1,5.5-2.69l.25.92a14.83,14.83,0,0,0-5.17,2.6Zm16.37-1a14.59,14.59,0,0,0-5.4-1.86L135,260a15.58,15.58,0,0,1,5.76,2Z"/><path class="cls-2" d="M92.2,341.14h-.09a15.59,15.59,0,0,1-5.68-2.23l.51-.8a15,15,0,0,0,5.35,2.1l-.07.48Zm6.06-.11-.2-.93a14.59,14.59,0,0,0,5.28-2.3l.55.79a15.4,15.4,0,0,1-5.63,2.49ZM82,334.63A15.56,15.56,0,0,1,79.57,329l.93-.2a14.84,14.84,0,0,0,2.3,5.28Zm26.13-.44-.8-.52a14.64,14.64,0,0,0,2.11-5.36h.48l.47.09h0a15.74,15.74,0,0,1-2.26,5.79ZM80.41,323l-1-.14h0a15.54,15.54,0,0,1,2.23-5.67l.81.51A14.72,14.72,0,0,0,80.41,323Zm29-.52a14.39,14.39,0,0,0-2.31-5.27l.79-.55a15.64,15.64,0,0,1,2.46,5.62Zm-22.85-9-.55-.78a15.64,15.64,0,0,1,5.62-2.46l.21.93a14.74,14.74,0,0,0-5.33,2.35Zm16.4-.31a14.63,14.63,0,0,0-5.33-2.09l.05-.48.1-.47-.1.47.1-.47a16,16,0,0,1,5.69,2.23Z"/></g></g></g></svg>