<svg xmlns="http://www.w3.org/2000/svg" viewBox="0 0 13.96 12.55"><defs><style>.cls-1{fill:#59b2e1;}</style></defs><title>Closed Chest Blue</title><g id="Layer_2" data-name="Layer 2"><g id="quest"><path class="cls-1" d="M13.2,4.4l-1.26.19-8.6,1h0l-2.23.23a.46.46,0,0,0-.4.51l.69,5.81a.46.46,0,0,0,.51.4l8.72-1,2.91-.35a.47.47,0,0,0,.4-.51ZM2.26,11.63,1.68,6.72,9.5,5.79l.58,4.91Zm8.73-1-.58-4.91,2-.24L13,10.36Z"/><path class="cls-1" d="M5.89,8.68a.47.47,0,0,0,.39-.5V7.69a.47.47,0,0,0-.48-.45.46.46,0,0,0-.44.48.25.25,0,0,0,0,.08l.06.48A.46.46,0,0,0,5.89,8.68Z"/><path class="cls-1" d="M4.53,1.38l.27.1-.1.26a.47.47,0,0,0,.35.55A.48.48,0,0,0,5.6,2l.09-.26.26.1a.46.46,0,0,0,.55-.33h0A.47.47,0,0,0,6.15.9L5.9.81,6,.56A.46.46,0,0,0,5.66,0h0a.46.46,0,0,0-.54.34L5,.61,4.76.52a.46.46,0,0,0-.55.34A.46.46,0,0,0,4.53,1.38Z"/><path class="cls-1" d="M.55,1.76l.27,0L.86,2a.47.47,0,0,0,.59.28.47.47,0,0,0,.3-.52l0-.26L2,1.44A.44.44,0,0,0,2.31.9h0A.46.46,0,0,0,1.75.57l-.27,0,0-.27A.45.45,0,0,0,.89,0,.46.46,0,0,0,.56.57L.6.85.34.89a.45.45,0,0,0,.21.87Z"/><path class="cls-1" d="M10,5.6H9.3l.06-.42c.05-.46.41-2.77,1.59-3,.76-.14,1.4.59,2.25,2.21l-.56.31c-.73-1.39-1.27-1.83-1.55-1.78-.46.08-.87,1.41-1,2.34H10Z"/><path class="cls-1" d="M1.45,6.59l-.71.1,0-.52c.06-.46.41-2.77,1.6-3,.76-.14,1.7,1.06,2.55,2.68L4.2,6c-.73-1.39-1.41-2.1-1.7-2.06C2,4,1.64,5.34,1.52,6.27H1.45Z"/><polygon class="cls-1" points="2.41 3.92 2.32 3.18 11.16 2.17 11.25 2.92 2.41 3.92"/></g></g></svg>