<svg xmlns="http://www.w3.org/2000/svg" viewBox="0 0 14.14 12.55"><defs><style>.cls-1{fill:#fcc310;}</style></defs><title>Closed Chest Gold</title><g id="Layer_2" data-name="Layer 2"><g id="quest"><path class="cls-1" d="M13.39,4.4l-1.26.19-8.6,1h0l-2.23.23a.46.46,0,0,0-.4.51l.69,5.81a.46.46,0,0,0,.51.4l8.72-1,2.91-.35a.47.47,0,0,0,.4-.51ZM2.45,11.63,1.87,6.72l7.82-.93.58,4.91Zm8.73-1L10.6,5.69l2-.24.58,4.91Z"/><path class="cls-1" d="M6.07,8.68a.45.45,0,0,0,.39-.5V7.69a.46.46,0,1,0-.92,0s0,0,0,.08l.06.48A.46.46,0,0,0,6.07,8.68Z"/><path class="cls-1" d="M4.1,1.38l.26.1-.1.26a.47.47,0,0,0,.35.55A.47.47,0,0,0,5.16,2l.09-.26.26.1a.46.46,0,0,0,.55-.33h0A.47.47,0,0,0,5.71.9L5.46.81,5.55.56A.46.46,0,0,0,5.22,0h0a.47.47,0,0,0-.55.34L4.58.61,4.32.52a.46.46,0,0,0-.55.34A.46.46,0,0,0,4.1,1.38Z"/><path class="cls-1" d="M.55,1.76l.27,0L.86,2a.47.47,0,0,0,.59.28.47.47,0,0,0,.3-.52l0-.26L2,1.44A.44.44,0,0,0,2.31.9h0A.46.46,0,0,0,1.75.57l-.27,0,0-.27A.45.45,0,0,0,.89,0,.46.46,0,0,0,.56.57L.6.85.34.89a.45.45,0,0,0,.21.87Z"/><path class="cls-1" d="M10.22,5.6H9.49l0-.42c.06-.46.41-2.77,1.6-3,.76-.14,1.4.59,2.25,2.21l-.56.31c-.73-1.39-1.27-1.83-1.56-1.78-.46.08-.86,1.41-1,2.34h-.07Z"/><path class="cls-1" d="M1.64,6.59l-.71.1,0-.52c.06-.46.41-2.77,1.6-3,.75-.14,1.69,1.06,2.54,2.68L4.39,6C3.66,4.59,3,3.88,2.69,3.92c-.46.09-.87,1.42-1,2.35H1.64Z"/><polygon class="cls-1" points="2.6 3.92 2.51 3.18 11.35 2.17 11.44 2.92 2.6 3.92"/></g></g></svg>