<svg xmlns="http://www.w3.org/2000/svg" viewBox="0 0 14.22 12.43"><defs><style>.cls-1{fill:#fff;}</style></defs><title>Closed Chest White</title><g id="Layer_2" data-name="Layer 2"><g id="quest"><path class="cls-1" d="M13.47,4.28l-1.26.19-8.6,1h0l-2.23.23a.46.46,0,0,0-.4.51L1.68,12a.46.46,0,0,0,.51.4l8.72-1,2.91-.35a.47.47,0,0,0,.4-.51ZM2.53,11.51,2,6.6l7.82-.93.58,4.91Zm8.73-1-.58-4.91,2-.24.58,4.91Z"/><path class="cls-1" d="M6.15,8.55a.45.45,0,0,0,.39-.5V7.56a.46.46,0,0,0-.92,0,.19.19,0,0,0,0,.08l.06.48A.46.46,0,0,0,6.15,8.55Z"/><path class="cls-1" d="M4.17,1.38l.26.1-.09.26a.46.46,0,0,0,.34.55A.47.47,0,0,0,5.23,2l.09-.26.27.1a.45.45,0,0,0,.54-.33h0A.45.45,0,0,0,5.79.9L5.54.81,5.63.56A.46.46,0,0,0,5.3,0h0a.46.46,0,0,0-.54.34l-.1.26L4.4.52a.46.46,0,0,0-.55.34A.44.44,0,0,0,4.17,1.38Z"/><path class="cls-1" d="M.55,1.76l.27,0L.86,2a.46.46,0,0,0,.89-.24l0-.27.28,0A.45.45,0,0,0,2.31.9h0A.46.46,0,0,0,1.75.57l-.27,0,0-.26A.45.45,0,0,0,.89,0,.47.47,0,0,0,.56.58L.6.85.34.89A.46.46,0,0,0,0,1.46.45.45,0,0,0,.55,1.76Z"/><path class="cls-1" d="M10.3,5.47H9.56l.06-.42c.06-.46.41-2.77,1.6-3,.75-.14,1.39.59,2.25,2.21l-.56.31c-.73-1.39-1.27-1.83-1.56-1.79-.46.09-.87,1.42-1,2.35H10.3Z"/><path class="cls-1" d="M1.71,6.47l-.7.1,0-.52c.05-.46.41-2.77,1.59-3,.76-.14,1.7,1.07,2.55,2.68l-.71.11c-.73-1.39-1.42-2.1-1.7-2-.46.08-.87,1.41-1,2.34H1.71Z"/><polygon class="cls-1" points="2.68 3.8 2.59 3.06 11.43 2.05 11.52 2.79 2.68 3.8"/></g></g></svg>