<svg xmlns="http://www.w3.org/2000/svg" viewBox="0 0 15.48 16.02"><defs><style>.cls-1{fill:#fff;}</style></defs><title>Treasure Icon White</title><g id="Layer_2" data-name="Layer 2"><g id="quest"><path class="cls-1" d="M11.69,2.14,3,3.14a.46.46,0,0,0-.4.51l.47,4L2.72,8,1.56,9.2l-.81.09a.46.46,0,0,0-.4.51L1,15.61a.46.46,0,0,0,.51.4l8.72-1,2.91-.35a.46.46,0,0,0,.4-.51l-.64-5.39a3.37,3.37,0,0,0,2.51-3.67h0A3.38,3.38,0,0,0,11.69,2.14ZM3.53,4.06A2.49,2.49,0,0,1,5.82,6.24h0v0a6,6,0,0,0-1.94.77l-.36-3Zm6.18,10.1-7.82.93-.58-4.91,7.82-.93ZM3,9.07l.41-.44a4.94,4.94,0,0,1,6.28-.74l.5.32Zm9.65,4.75-2,.24L10,9.15l2-.24ZM11.93,8l-.36.05-1.42-.93a5.82,5.82,0,0,0-3.42-.94h0A3.38,3.38,0,0,0,5.37,3.85l6-.71Zm2.61-2.8a2.46,2.46,0,0,1-1.71,2.66L12.25,3A2.47,2.47,0,0,1,14.54,5.2Z"/><path class="cls-1" d="M5.51,12.14a.44.44,0,0,0,.39-.5v-.49a.46.46,0,0,0-.92,0s0,.06,0,.08l.06.48A.46.46,0,0,0,5.51,12.14Z"/><path class="cls-1" d="M.48,7.09H.76v.28a.46.46,0,0,0,.91-.11V7H2a.44.44,0,0,0,.4-.49h0a.46.46,0,0,0-.51-.4H1.57V5.82a.45.45,0,0,0-.49-.4h0a.47.47,0,0,0-.4.5V6.2H.4a.46.46,0,0,0-.4.51A.45.45,0,0,0,.48,7.09Z"/><path class="cls-1" d="M4.75,1.67H5V2a.47.47,0,0,0,.55.36.45.45,0,0,0,.36-.47V1.57h.28a.44.44,0,0,0,.4-.49h0a.46.46,0,0,0-.51-.4H5.84V.4a.45.45,0,0,0-.5-.4.46.46,0,0,0-.4.5V.78H4.67a.46.46,0,0,0-.4.51A.45.45,0,0,0,4.75,1.67Z"/><path class="cls-1" d="M9.15,5.57h.27v.28a.47.47,0,0,0,.55.36.45.45,0,0,0,.36-.47V5.47h.27A.44.44,0,0,0,11,5h0a.46.46,0,0,0-.51-.4h-.27V4.3a.46.46,0,0,0-.51-.4.47.47,0,0,0-.4.5h0v.28H9a.46.46,0,1,0,0,.92h.07Z"/></g></g></svg>