<svg xmlns="http://www.w3.org/2000/svg" xmlns:xlink="http://www.w3.org/1999/xlink" viewBox="0 0 107.43 59.26"><defs><style>.cls-1{fill:url(#linear-gradient);}.cls-2{fill:url(#linear-gradient-2);}.cls-3{fill:url(#linear-gradient-3);}.cls-4{fill:url(#linear-gradient-4);}.cls-5{fill:url(#linear-gradient-5);}.cls-6{fill:url(#linear-gradient-6);}.cls-7{fill:url(#linear-gradient-7);}.cls-8{fill:url(#linear-gradient-8);}.cls-9{fill:#fc0;}.cls-10{fill:url(#linear-gradient-9);}.cls-11{fill:url(#linear-gradient-10);}.cls-12{fill:#172135;}.cls-13,.cls-15,.cls-16{fill-opacity:0.5;}.cls-13{fill:url(#radial-gradient);}.cls-14{fill:#fff;}.cls-15{fill:url(#radial-gradient-2);}.cls-16{fill:url(#radial-gradient-3);}</style><linearGradient id="linear-gradient" x1="140.65" y1="154.65" x2="160.75" y2="154.65" gradientTransform="translate(-92.47 -77.43) rotate(-16.52)" gradientUnits="userSpaceOnUse"><stop offset="0" stop-color="#e88f00"/><stop offset="1" stop-color="#cc7d00"/></linearGradient><linearGradient id="linear-gradient-2" x1="153.42" y1="143.53" x2="153.42" y2="158.09" gradientTransform="translate(-55.82 -127.29)" gradientUnits="userSpaceOnUse"><stop offset="0" stop-color="#fc0"/><stop offset="1" stop-color="#e88f00"/></linearGradient><linearGradient id="linear-gradient-3" x1="152.96" y1="153.11" x2="152.96" y2="159.57" gradientTransform="translate(-92.47 -77.43) rotate(-16.52)" xlink:href="#linear-gradient-2"/><linearGradient id="linear-gradient-4" x1="153.42" y1="156.17" x2="153.42" y2="163.45" gradientTransform="translate(-92.47 -77.43) rotate(-16.52)" xlink:href="#linear-gradient-2"/><linearGradient id="linear-gradient-5" x1="129.8" y1="142.21" x2="129.8" y2="149.02" gradientTransform="translate(-92.47 -77.43) rotate(-16.52)" xlink:href="#linear-gradient-2"/><linearGradient id="linear-gradient-6" x1="74.03" y1="144.98" x2="105.08" y2="144.98" gradientTransform="translate(-55.17 -110.38)" xlink:href="#linear-gradient-2"/><linearGradient id="linear-gradient-7" x1="81.77" y1="144.98" x2="112.82" y2="144.98" gradientTransform="translate(-55.08 -109.78)" xlink:href="#linear-gradient-2"/><linearGradient id="linear-gradient-8" x1="71.35" y1="144.98" x2="106.3" y2="144.98" gradientTransform="translate(-92.47 -77.43) rotate(-16.52)" xlink:href="#linear-gradient-2"/><linearGradient id="linear-gradient-9" x1="41.69" y1="144.98" x2="109.38" y2="144.98" gradientTransform="translate(-92.47 -77.43) rotate(-16.52)" xlink:href="#linear-gradient-2"/><linearGradient id="linear-gradient-10" x1="30.01" y1="144.98" x2="65.19" y2="144.98" gradientTransform="translate(-92.47 -77.43) rotate(-16.52)" xlink:href="#linear-gradient-2"/><radialGradient id="radial-gradient" cx="-176.38" cy="340.89" r="8.37" gradientTransform="translate(409.9 156.26) rotate(85.31)" gradientUnits="userSpaceOnUse"><stop offset="0" stop-color="#fff" stop-opacity="0.5"/><stop offset="0.22" stop-color="#fff" stop-opacity="0.37"/><stop offset="0.33" stop-color="#fff" stop-opacity="0.3"/><stop offset="0.49" stop-color="#fff" stop-opacity="0.25"/><stop offset="0.8" stop-color="#fff" stop-opacity="0.1"/><stop offset="1" stop-color="#fff" stop-opacity="0"/></radialGradient><radialGradient id="radial-gradient-2" cx="-147.08" cy="330.43" r="3.99" gradientTransform="translate(237.56 370.01) rotate(130.31)" xlink:href="#radial-gradient"/><radialGradient id="radial-gradient-3" cx="-107.62" cy="358.49" r="3.32" gradientTransform="translate(44.25 430.08) rotate(161.61)" xlink:href="#radial-gradient"/></defs><title>Key Only</title><g id="Layer_2" data-name="Layer 2"><g id="Layer_1-2" data-name="Layer 1"><g id="Key_Only" data-name="Key Only"><path class="cls-1" d="M104.55,25.68l-2.1-7.08L88.54,22.73l2.1,7.08h0c-.5.15-.7,1-.45,1.84h0c.26.87.88,1.45,1.38,1.3h0l.89,3a.57.57,0,0,0,.71.38l3.07-.91a1.51,1.51,0,0,1,2.89-.85l3.12-.93a1.5,1.5,0,0,1,1-1.87,1.53,1.53,0,0,1,1.75.71.44.44,0,0,0,.5.2l1-.31-1-3.54c-.5.15-1.12-.43-1.37-1.3h0C103.85,26.65,104.05,25.83,104.55,25.68Z"/><rect class="cls-2" x="90.34" y="20.2" width="14.51" height="7.38" transform="translate(-2.77 28.73) rotate(-16.52)"/><path class="cls-3" d="M105.15,27.21h0c-.25-.87-.05-1.69.45-1.84L91.71,29.49c-.51.15-.71,1-.45,1.84h0c.26.87.88,1.45,1.38,1.3l13.89-4.12C106,28.66,105.41,28.08,105.15,27.21Z"/><path class="cls-4" d="M92.62,32.64l.91,3.06a.5.5,0,0,0,.61.34l2.09-.62a.61.61,0,0,0,.43-.6,1.51,1.51,0,0,1,3-.41l3.06-.9a1.51,1.51,0,0,1,2.75-1.19.47.47,0,0,0,.54.21l1-.3a.63.63,0,0,0,.43-.78l-.87-2.94Z"/><path class="cls-5" d="M105,18.44,40.56,37.54l-1.73-5.86,64.42-19.1a2.67,2.67,0,0,1,3.33,1.8l.21.72A2.69,2.69,0,0,1,105,18.44Z"/><path class="cls-6" d="M33.32,29.78h7.93a4.83,4.83,0,0,1,4.83,4.83v0a4.83,4.83,0,0,1-4.83,4.83H33.32a0,0,0,0,1,0,0V29.78a0,0,0,0,1,0,0Z" transform="matrix(0.96, -0.28, 0.28, 0.96, -8.2, 12.71)"/><path class="cls-7" d="M31.28,32.51H41.34a2.7,2.7,0,0,1,2.7,2.7v0a2.7,2.7,0,0,1-2.7,2.7H31.28a0,0,0,0,1,0,0v-5.4A0,0,0,0,1,31.28,32.51Z" transform="matrix(0.96, -0.28, 0.28, 0.96, -8.46, 12.16)"/><circle class="cls-8" cx="20.09" cy="40.42" r="17.99"/><circle class="cls-9" cx="18" cy="41.04" r="17.99" transform="translate(-25.9 50.07) rotate(-77.94)"/><circle class="cls-10" cx="18" cy="41.04" r="13.89"/><path class="cls-11" d="M5.73,44.68a13.88,13.88,0,0,1,8.85-17.09l-.53.14A13.89,13.89,0,1,0,22,54.36l.52-.17A13.88,13.88,0,0,1,5.73,44.68Z"/><path class="cls-12" d="M16.68,41.43a3.52,3.52,0,1,1-4.38-2.37A3.52,3.52,0,0,1,16.68,41.43Z"/><g id="Sparks"><circle class="cls-13" cx="55.73" cy="8.37" r="8.37"/><path class="cls-14" d="M58.8,11.93s-.58-3-6.71-6.54C52.09,5.39,54.84,10.55,58.8,11.93Z"/><path class="cls-14" d="M52.18,12s3-.58,6.53-6.72C58.71,5.3,53.56,8.06,52.18,12Z"/><circle class="cls-15" cx="80.71" cy="44.1" r="3.99"/><path class="cls-14" d="M80.55,46.33s.83-1.22-.06-4.46C80.49,41.87,79.69,44.54,80.55,46.33Z"/><path class="cls-14" d="M78.29,44.13s1.22.83,4.46-.06C82.75,44.07,80.09,43.26,78.29,44.13Z"/><circle class="cls-16" cx="33.29" cy="55.94" r="3.32"/><path class="cls-14" d="M32.21,57.46s1.12-.51,1.89-3.2A6.07,6.07,0,0,0,32.21,57.46Z"/><path class="cls-14" d="M31.55,54.91s.51,1.12,3.21,1.89A6.12,6.12,0,0,0,31.55,54.91Z"/></g></g></g></g></svg>