<svg xmlns="http://www.w3.org/2000/svg" viewBox="0 0 110.25 68.51"><defs><style>.cls-1{fill:#878286;}.cls-2{fill:#5b575b;}.cls-3{fill:#6d696d;}.cls-4{fill:#999698;}.cls-5{fill:#a5a0a4;}.cls-6{fill:#bcb7bb;}</style></defs><title>Stone 1</title><g id="Layer_2" data-name="Layer 2"><g id="Layer_1-2" data-name="Layer 1"><path class="cls-1" d="M85.3,53.51c-.2-5.18-1.92-19.62-2.61-24.29A5.22,5.22,0,0,0,80,30.4C78.3,31.66,77.12,33,75.4,33.62c.93,5.67.77,11.72.92,17.45q.17,6.16.34,12.35c2.76-1.32,7-4.08,8.58-4.25C85.32,57.25,85.36,55.26,85.3,53.51Z"/><path class="cls-1" d="M96.75,52c0-1.27-.08-2.53-.17-3.78-.81-4.44-1.8-9.84-2.67-13.63-.45-1.92-1.3-6.62-1.33-6.78,0,0-.25-.27-.59-.66a14.81,14.81,0,0,1-4.16,1.69C88.42,34.24,90.3,42,91,46.47c.34,2.09.85,4.15,1.12,6.25s-.41,5-.43,7.12a8.67,8.67,0,0,0,3-.13c1-.24,1.36-1.45,2-2.3C96.28,55.64,96.77,53.2,96.75,52Z"/><path class="cls-2" d="M93.91,34.58c1,4.17,2.06,10.3,2.91,14.94a41.84,41.84,0,0,0,.58-10.67,96.11,96.11,0,0,0-2.34-15,17.74,17.74,0,0,1-3.58.48c0,1.37-.36,2.13.66,2.68l-.15.08c.34.39.58.66.59.66C92.61,28,93.46,32.66,93.91,34.58Z"/><path class="cls-3" d="M92.12,52.72c-.27-2.1-.78-4.16-1.12-6.25-.7-4.44-2.58-12.23-3.17-17.64a14.1,14.1,0,0,1-3.44.33,12.58,12.58,0,0,0-1.7.06c.69,4.67,2.41,19.11,2.61,24.29.06,1.75,0,3.74-.06,5.66h.09c1.89-.09,4.22.49,6.36.68C91.71,57.67,92.37,54.73,92.12,52.72Z"/><path class="cls-3" d="M75.4,33.62a5.88,5.88,0,0,1-2.45.3c-2.15-.15-6.8-1.08-6.77-1,.35,1.49.14,2.67-1.17,3.07a6.73,6.73,0,0,1-1.61.2,98.44,98.44,0,0,1,2.89,20.86c.1,2.27.15,4.54.17,6.81a25.48,25.48,0,0,0,0,4.19l.36-.12c1.76-.67,3.21-3.39,3.21-3.39a14.16,14.16,0,0,0,5.63-.7c.3-.11.64-.26,1-.43q-.16-6.18-.34-12.35C76.17,45.34,76.33,39.29,75.4,33.62Z"/><path class="cls-3" d="M101.7,45.81c.12-2.73-.28-4.42,2-3.72,1.14.35.64-3.33.89-5.38.22-1.82,1.45-3.58,1.39-5.41-.11-3.3-.28-6.6-.26-9.9-3.83.9-7.76,1.91-10.64,2.5a96.11,96.11,0,0,1,2.34,15,41.84,41.84,0,0,1-.58,10.67c-.08-.42-.16-.87-.24-1.31.09,1.25.15,2.51.17,3.78s-.47,3.65-.13,5.42a1.92,1.92,0,0,1,.95-.77l4-1.29C101.48,52.3,101.57,48.56,101.7,45.81Z"/><path class="cls-2" d="M110,36.3c-.16-4.24,0-10.3-.34-15.79-1.28.26-2.63.57-4,.89,0,3.3.15,6.6.26,9.9.06,1.83-1.17,3.59-1.39,5.41-.25,2,.25,5.73-.89,5.38-2.26-.7-1.86,1-2,3.72s-.22,6.49-.16,9.54c2.85-.94,5.72-1.87,8.69-2.55Q110.32,44.55,110,36.3Z"/><path class="cls-4" d="M91.48,24.38c2.62.11,11.34-2.45,18.21-3.87v-.09a138,138,0,0,1-15.37-6.6,26.29,26.29,0,0,1-5.15-3c-2.89.4-5.76-1-8.36-2.23s-5.69-2.58-8.5-.94c-1.84,1.07-3.08,2.83-5.09,3.67-2.53,1.06-5.37.79-7.74,2.34a9.47,9.47,0,0,0-4,5.78c-1,4.57,1.82,8.61,5.8,10.23.84-.05,3.9,2.79,5,5a4.09,4.09,0,0,0-.07-1.79c0-.09,4.62.84,6.77,1,3.32.25,4.67-1.75,7-3.52a5.84,5.84,0,0,1,4.41-1.24,13.62,13.62,0,0,0,7.75-2.1C91.12,26.51,91.51,25.75,91.48,24.38Z"/><path class="cls-5" d="M61.28,29.71c-4-1.62-6.85-5.66-5.8-10.23a9.47,9.47,0,0,1,4-5.78c2.37-1.55,5.21-1.28,7.74-2.34,2-.84,3.25-2.6,5.09-3.67,2.81-1.64,5.82-.28,8.5.94s5.47,2.63,8.36,2.23A6.63,6.63,0,0,1,88,9.69c-1.71-2.27.49-4.59-.47-6.93C86.41-.07,82.44,0,79.93,0,74.05.08,68.17.39,62.31.84A294.72,294.72,0,0,0,28.44,5.42C23,6.48,17.52,7.65,12.13,9.06c-2.41.64-4.46,1.49-5.82,3.15-1,3.74,7.29,7,9.76,8.22,4,2,8.18,3.72,12.37,5.31,7.8,3,22.4,8,30.34,10.55,2-.27,4.76.16,6.23-.29a1.69,1.69,0,0,0,1.24-1.28C65.18,32.5,62.12,29.66,61.28,29.71Z"/><path class="cls-3" d="M59.84,62.48a3.6,3.6,0,0,0-2.14-2.66,3.45,3.45,0,0,0-.43-.12q-.15,4.11-.22,8.24c2.65.07,4.73.64,6.88.56A10.41,10.41,0,0,1,59.84,62.48Z"/><path class="cls-3" d="M57,67.94h.07q.08-4.12.22-8.24a4.93,4.93,0,0,0-3.36.61,5.73,5.73,0,0,0-1.51,1.31c-1.17,1.32-1.94,1.47-3.68,1.3a101.1,101.1,0,0,1-16.9-3.09c-2.73-.74-5.43-1.58-8.08-2.54s-5.43-2.11-6.66-4.84c-.25-.54-.42-2.93-1-.93-1,3.49-3,3.51-5.36,3.14-.76-.12-1.53-.2-2.29-.27,6,2.18,13.89,5,18.9,6.71C35.34,63.85,48.43,67.66,57,67.94Z"/><path class="cls-1" d="M66.46,63.87c0-2.27-.07-4.54-.17-6.81A98.44,98.44,0,0,0,63.4,36.2c-1.45,0-3.23-.1-4.62.09-7.94-2.52-22.54-7.6-30.34-10.55C24.9,24.4,21.39,23,18,21.33a2,2,0,0,0-.12,1.35c.39.91.61,2.76,1.27,3.37.46.43.45,1.39-.25,1s-1.25.13-1.49.92a12.07,12.07,0,0,1-2,3c-1.43,2-1.73,4-2,6.4-.39,3.9-2.13,7.27-4,10.67a.45.45,0,0,1-.81-.11A24,24,0,0,1,7,37.82,36.06,36.06,0,0,0,6,26.47c0-.2.3-.24.34,0s0,.22.07.33c1.38-3,2.9-6,4.54-8.87h0c-2.68-1.54-5.16-3.52-4.6-5.66a7.11,7.11,0,0,0-1.43,2.87C3.37,21,2.93,27.44,2,33.5,1.36,38.05.53,46.64,0,51.23c-.32,0,3.4,1.35,8.4,3.16.76.07,1.53.15,2.29.27,2.33.37,4.35.35,5.36-3.14.59-2,.76.39,1,.93,1.23,2.73,4,3.89,6.66,4.84s5.35,1.8,8.08,2.54a101.1,101.1,0,0,0,16.9,3.09c1.74.17,2.51,0,3.68-1.3a5.73,5.73,0,0,1,1.51-1.31,4.93,4.93,0,0,1,3.36-.61,3.45,3.45,0,0,1,.43.12,3.6,3.6,0,0,1,2.14,2.66,10.41,10.41,0,0,0,4.09,6,8.92,8.92,0,0,0,2.53-.44A25.48,25.48,0,0,1,66.46,63.87Z"/><path class="cls-3" d="M6,26.47A36.06,36.06,0,0,1,7,37.82,24,24,0,0,0,8.58,47.89a.45.45,0,0,0,.81.11c1.84-3.4,3.58-6.77,4-10.67.25-2.42.55-4.38,2-6.4a12.07,12.07,0,0,0,2-3c.24-.79.66-1.34,1.49-.92s.71-.54.25-1c-.66-.61-.88-2.46-1.27-3.37A2,2,0,0,1,18,21.33c-.63-.3-1.27-.59-1.89-.9C15,19.9,12.91,19,10.91,17.87h0C9.26,20.78,6,26.27,6,26.47Z"/><path class="cls-6" d="M103.67,17.77a84.36,84.36,0,0,1-11.3-5.08c-.94-.54-3.36-2.3-4-3.58A4.36,4.36,0,0,1,88,6.37c.23-1.47.29-3.12-.48-3.61.26,2-1.82,4.74-2.45,5.9-.23.43-.1,1.4,3,2.67a52.51,52.51,0,0,1,5.57,3c3,1.54,6.15,2.44,9.1,4.14.89.51,1.68,2.15-.66,2.74-.36.09-2.25.66-2.62.72-2.21.21-4.42.47-6.61.54-3.21.11-2.15-2-1.92-3.62-2.38.39-2.29,1.39-2.36,2.43a5.5,5.5,0,0,0,1.11,3,2,2,0,0,1-.7,3.05c-1.24.57-4.79.37-5.93.47-2.8.26-4.55,2.24-5.94,3.74a9.73,9.73,0,0,0-.69.74,11.07,11.07,0,0,1-1.29.81C71.56,34.31,61.1,29,59.14,28.69c1.56.93,2.9,2.13,4.26,3.06s.79,1.76.56,2c-1.23,1.53-5.58,1.33-7.37,1.07-5.09-.76-9.92-2.64-14.81-4.27-9.67-3.22-18.46-8.16-27.73-12.46A21.56,21.56,0,0,1,9.53,15c-1.14-1.5-.26-4.19,1.62-5.64a10.13,10.13,0,0,0-2.66.86c-.92.49-2.26,1.63-2.37,2.25a4.12,4.12,0,0,0,1.31,3.09c.12.13.46.5.68.79a3.18,3.18,0,0,1,.34,2.25,24.42,24.42,0,0,1-1.56,5.17L6,26.47a15.23,15.23,0,0,0,5.21-7c.07-.2.4-1,.95-.74,3.52,1.51,16.88,8.15,24.33,11C41.21,31.52,46,33.14,51,34.51,54.35,35.45,62.2,36,63.7,40a50.73,50.73,0,0,1,1.64,7.7C66,52.29,65.8,57.4,66.43,62a59.26,59.26,0,0,0-.06-15.11c-.42-2.78-1-5-.54-7.85a38.37,38.37,0,0,0,.69-4.64c1.17.57,6.81.72,8.08.3A5.85,5.85,0,0,0,77.72,33c1.56-1.1,3.2-3.27,5-3.65A9.29,9.29,0,0,1,86,29.32c.43,0,2.2.11,2.58.08,1.45-.09,3.43-.47,4-1.6-.19-1.35-1.07-2.55-1-3.24.57,0,1-.15,2.26-.3,1.58-.19,3.8-.66,5.17-.92,3.55-.65,7.19-2.15,10.73-2.83C108.28,19.71,104.09,17.94,103.67,17.77Z"/><path class="cls-3" d="M63.11,52.07c0-1.87.16-5.67-1.62-6.38s-1-2.7-2.75-4.25c-1.25-1.09-2.88.11-3.25-.5-.92-1.53-2-2.71-3-2.52-.46,3.9-.15,6.41,1.9,9.79.35.57,1.7,1.33,2.05,1.89.51.83-.25,2.5,1.25,3.25,1.87.93,2.67,1.09,2.75,3.09.1,2.31.5,5.56,2.91,5.56.4,0-.83-2.3-.43-4.59C63.4,54.94,63.16,54.57,63.11,52.07Z"/></g></g></svg>