<svg xmlns="http://www.w3.org/2000/svg" xmlns:xlink="http://www.w3.org/1999/xlink" viewBox="0 0 246 246"><defs><style>.cls-1{opacity:0.6;}.cls-2{fill:url(#linear-gradient);}.cls-3{fill:url(#linear-gradient-2);}.cls-4{fill:url(#linear-gradient-3);}.cls-5{fill:url(#linear-gradient-4);}.cls-6{fill:url(#linear-gradient-5);}.cls-7{fill:url(#linear-gradient-6);}.cls-8{fill:url(#linear-gradient-7);}.cls-9{fill:url(#linear-gradient-8);}.cls-10{fill:#404b5f;}</style><linearGradient id="linear-gradient" x1="-482.08" y1="1722.71" x2="-484.09" y2="1845.18" gradientTransform="translate(1098.16 -1506.33) rotate(16.26)" gradientUnits="userSpaceOnUse"><stop offset="0.04" stop-color="#fff" stop-opacity="0"/><stop offset="1" stop-color="#fff" stop-opacity="0.4"/></linearGradient><linearGradient id="linear-gradient-2" x1="-1099.99" y1="3009.81" x2="-1102" y2="3132.28" gradientTransform="translate(3401.71 -410.99) rotate(61.39)" xlink:href="#linear-gradient"/><linearGradient id="linear-gradient-3" x1="-636.29" y1="4370.25" x2="-638.31" y2="4492.72" gradientTransform="translate(4251.82 1988.84) rotate(106.26)" xlink:href="#linear-gradient"/><linearGradient id="linear-gradient-4" x1="663.43" y1="4992.44" x2="661.42" y2="5114.91" gradientTransform="translate(3156.48 4292.38) rotate(151.39)" xlink:href="#linear-gradient"/><linearGradient id="linear-gradient-5" x1="2012.51" y1="4531.14" x2="2010.5" y2="4653.61" gradientTransform="translate(756.65 5142.5) rotate(-163.74)" xlink:href="#linear-gradient"/><linearGradient id="linear-gradient-6" x1="2637.61" y1="3222.55" x2="2635.38" y2="3358.76" gradientTransform="translate(-1546.89 4047.16) rotate(-118.61)" xlink:href="#linear-gradient"/><linearGradient id="linear-gradient-7" x1="2167.85" y1="1873.38" x2="2165.84" y2="1995.85" gradientTransform="translate(-2397.01 1647.33) rotate(-73.74)" xlink:href="#linear-gradient"/><linearGradient id="linear-gradient-8" x1="874.11" y1="1244.87" x2="872.1" y2="1367.34" gradientTransform="translate(-1301.67 -656.22) rotate(-28.61)" xlink:href="#linear-gradient"/></defs><title>White Glow</title><g id="Layer_2" data-name="Layer 2"><g id="Layer_1-2" data-name="Layer 1"><g id="Layer_1-2-2" data-name="Layer 1-2"><g class="cls-1"><polygon class="cls-2" points="129.23 114.82 120.43 112.29 134.06 0 175.96 12.04 129.23 114.82"/><polygon class="cls-3" points="133.91 122.33 129.48 114.31 218.52 44.55 239.62 82.72 133.91 122.33"/><polygon class="cls-4" points="131.21 130.23 133.71 121.43 246 135.06 233.96 176.96 131.21 130.23"/><polygon class="cls-5" points="123.67 133.91 131.69 129.48 201.45 218.52 163.28 239.62 123.67 133.91"/><polygon class="cls-6" points="115.77 131.21 124.57 133.71 110.94 246 69.04 233.96 115.77 131.21"/><polygon class="cls-7" points="112.12 123.67 116.52 131.69 27.48 201.45 6.38 163.28 112.12 123.67"/><polygon class="cls-8" points="114.82 115.77 112.29 124.57 0 110.94 12.04 69.04 114.82 115.77"/><polygon class="cls-9" points="122.33 112.12 114.31 116.52 44.55 27.48 82.72 6.38 122.33 112.12"/><circle class="cls-10" cx="123.01" cy="123.01" r="13.99"/></g></g></g></g></svg>